<?xml version="1.0" encoding="UTF-8"?>
<svg id="Layer_1" data-name="Layer 1" xmlns="http://www.w3.org/2000/svg" viewBox="0 0 210.59 203.48">
  <path d="M168.88,37.77c48.1,47.82,28.04,129.89-36.46,149.97C65.46,208.57,1.44,148.72,17.64,80.52,33.81,12.44,119.05-11.78,168.88,37.77ZM76.36,87.79h-15.76v27.74h15.76l24.84,23.33,2.53,1.89v-26.48l18.16,18.04c.09.5-.08.31-.32.43-2.7,1.35-5.71,2.01-8.51,3.1v9.08c.6.5,2.19-.07,3.03-.25,4.57-1,8.85-2.94,12.95-5.13l9.6,9.05,6.46-6.44L58.83,55.88h-.76s-6.06,6.31-6.06,6.31l24.6,24.84-.26.76ZM113.05,58.41v9.08c2.76,1.02,5.58,1.74,8.29,3.06,15.31,7.42,22.82,25.17,17.81,41.46-.8,2.61-2.06,5.01-3.16,7.43l6.69,6.67c16.96-24.87,3.98-58.97-24.79-66.99-1.07-.3-3.33-.98-4.33-.98-.29,0-.33.02-.52.28ZM103.72,62.57l-12.84,11.95,12.84,12.52v-24.46ZM113.05,78.08v9.58c5.69,3.15,8.77,8.59,8.57,15.13-.02.76-.55,1.6-.12,2.39l7.06,7.06c6.45-12.45.28-27.97-12.39-33.5-.58-.25-2.9-1.45-3.12-.67Z"/>
</svg>