<?xml version="1.0" encoding="UTF-8"?>
<svg id="Layer_1" data-name="Layer 1" xmlns="http://www.w3.org/2000/svg" viewBox="0 0 210.59 203.48">
  <path d="M169.34,38.27c47.67,47.74,27.09,129.48-36.96,149.43C66.44,208.24,2.85,150.32,17.12,82.78,31.89,12.9,118.65-12.49,169.34,38.27ZM113.03,58.41v9.08c1.9.84,4.08,1.23,6.05,2.02,28.7,11.6,28.68,52.64,0,64.29-1.98.8-4.14,1.21-6.05,2.02v9.08c.19.25.22.28.52.28,1.02-.01,3.6-.78,4.72-1.09,42.32-12.08,42.37-72.66,0-84.86-.88-.25-3.99-1.16-4.66-1.15-.31,0-.39.11-.57.34ZM103.7,62.57c-.75.29-1.66,1.1-2.27,1.64-8.57,7.6-16.45,16.05-25.09,23.58h-15.76v27.74h15.76c8.4,7.48,16.26,15.54,24.58,23.08.57.51,1.45,1.32,2.02,1.76.25.2.32.49.76.38V62.57ZM113.03,125.6c9.26-2.38,16.5-10.91,17.87-20.33,1.66-11.35-5.06-22.97-15.79-27.02-.38-.14-2.08-.88-2.08-.19v9.58c11.35,6.01,11.33,21.99,0,27.99v9.96Z"/>
</svg>