<?xml version="1.0" encoding="UTF-8"?>
<svg id="ICONS" xmlns="http://www.w3.org/2000/svg" viewBox="0 0 85.04 85.04">
  <defs>
    <style>
      .cls-1 {
        fill: #fff385;
      }

      .cls-2 {
        fill: #1d1d1b;
      }

      .cls-3 {
        fill: #70dfff;
      }

      .cls-4, .cls-5 {
        fill: #fff;
      }

      .cls-6 {
        fill: #ff7575;
      }

      .cls-7 {
        fill: #ff9ef0;
      }

      .cls-5 {
        stroke: #231f20;
        stroke-miterlimit: 10;
        stroke-width: .75px;
      }
    </style>
  </defs>
  <path class="cls-5" d="M67.14,17.98c-2.67,1.65-5.66,3.39-8.63,5.05.27.71.5,1.55.67,2.57.92,5.56-.03,15.23-2.89,16.2-.38.13-.8.19-1.26.19-1.75,0-4.02-.85-6.16-1.9,2.42,2.47,5.26,6.48,5.42,11.82.02.52.03.97-.38,1.08-.4.1-.56-.22-.9-.92-.35-.71-.89-1.81-1.67-2.69-.09,1.5-.56,4.4-2.68,6.65-.16.17-.31.21-.43.21-.07,0-.13-.01-.16-.03-.42-.15-.45-.62-.56-2.01-.23-2.96-.7-9.02-4.98-14.27-4.28,5.25-4.76,11.32-4.98,14.27-.11,1.39-.14,1.86-.56,2.01-.04.01-.09.03-.16.03-.12,0-.27-.04-.43-.21-2.11-2.26-2.58-5.16-2.68-6.65-.78.88-1.32,1.98-1.67,2.69-.34.7-.5,1.01-.9.92-.41-.1-.4-.55-.38-1.08.16-5.34,3-9.35,5.42-11.82-2.14,1.05-4.41,1.9-6.16,1.9-.46,0-.88-.06-1.26-.19-2.86-.97-3.81-10.64-2.89-16.2.17-1.02.4-1.87.67-2.58-2.97-1.67-5.96-3.4-8.63-5.05,1.09.76,4.73,3.8,3.25,9.16-2.33,8.41-1.93,10.69,2.84,16.26,4.2,4.9,2.6,9.04-1.38,14.11.69.07,1.36.31,1.95.76,9.74,7.52,15.61,11.68,17.96,13.14,2.35-1.46,8.22-5.62,17.96-13.14.57-.44,1.24-.7,1.95-.77-3.97-5.07-5.57-9.21-1.38-14.11,4.77-5.57,5.17-7.84,2.84-16.26-1.49-5.37,2.16-8.4,3.25-9.16Z"/>
  <path class="cls-3" d="M34.43,15.31c-2.67-4.71-5.42-8.52-7.33-8.75-.5-.06-1.06-.09-1.65-.09-1.42,0-3.06.16-4.73.43,2.47,2.79,7.14,6.99,13.71,8.41Z"/>
  <path class="cls-3" d="M28.89,20.76c4.65,0,9.45,4.7,12.03,7.69-1.11-2.53-2.56-5.65-4.14-8.75-10.96-.95-17.89-8.46-20.52-11.91-3.67.89-6.7,2.01-6.87,2.59,0,1.52,8.21,6.64,17.5,11.86.53-.97,1.2-1.49,2-1.49Z"/>
  <path class="cls-4" d="M16.33,6.91s0,0,0,0c.06-.01.12-.03.17-.04-.05.01-.11.02-.16.04Z"/>
  <polygon class="cls-4" points="19.85 6.2 19.85 6.2 19.85 6.2 19.85 6.2"/>
  <path class="cls-4" d="M17.88,6.57c.1-.02.2-.04.31-.06-.1.02-.2.04-.31.06Z"/>
  <path class="cls-4" d="M35.61,15.71s-.01-.01-.02-.02c.04.07.08.14.12.21-.03-.06-.07-.13-.1-.19Z"/>
  <path class="cls-4" d="M36.78,19.7c-.76-1.49-1.56-2.98-2.36-4.38-6.56-1.42-11.24-5.63-13.71-8.41-1.5.23-3.02.55-4.45.89,2.63,3.45,9.55,10.95,20.52,11.91Z"/>
  <path class="cls-3" d="M56.15,20.76h0c.8,0,1.47.52,2,1.49,9.29-5.22,17.5-10.35,17.5-11.88-.17-.57-3.19-1.69-6.87-2.58-2.63,3.45-9.55,10.95-20.52,11.91-1.58,3.1-3.03,6.22-4.14,8.75,2.59-2.99,7.39-7.69,12.03-7.69Z"/>
  <path class="cls-3" d="M64.32,6.9c-1.67-.26-3.31-.43-4.73-.43-.59,0-1.15.03-1.65.09-1.91.23-4.65,4.05-7.33,8.75,6.56-1.43,11.24-5.63,13.71-8.42Z"/>
  <path class="cls-4" d="M68.71,6.91c-.07-.02-.14-.03-.21-.05.07.02.15.03.22.05,0,0,0,0-.01,0Z"/>
  <path class="cls-4" d="M49.43,15.71c-.03.06-.07.13-.1.19.04-.07.08-.14.12-.21,0,0-.01.01-.02.02Z"/>
  <path class="cls-4" d="M66.81,6.5c.14.03.28.06.42.09-.14-.03-.28-.06-.42-.09Z"/>
  <path class="cls-4" d="M65.19,6.2s0,0,0,0c.02,0,.05,0,.07.01-.02,0-.05,0-.07-.01Z"/>
  <path class="cls-4" d="M68.77,7.79c-1.43-.35-2.95-.66-4.45-.89-2.47,2.79-7.14,6.99-13.71,8.42-.8,1.41-1.59,2.89-2.36,4.38,10.96-.95,17.89-8.46,20.52-11.91Z"/>
  <path class="cls-6" d="M29.03,41.01c2.32.79,6.97-1.61,10.1-3.5-.39-.39-.74-.81-1.07-1.24-1.1.94-2.27,1.44-3.49,1.44-.06,0-.12,0-.18,0-2.31-.09-3.9-1.84-3.97-1.91-.11-.13-.14-.31-.06-.46.08-.15.23-.25.4-.23.78.06,1.41-.02,1.86-.12-3.62-2.09-3.66-6.08-3.66-6.12,0-.17.1-.32.25-.38.15-.06.33-.03.45.08,1.15,1.07,2.31,1.67,3.18,1.99-1.56-1.99-1.49-4.3-1.48-4.41,0-.18.13-.33.3-.38.17-.05.36.02.46.16,1.28,1.85,3.35,2.85,4.16,3.19.24-.54.61-.94,1.11-1.15.62-.26,1.21-.3,1.75-.2-2.62-2.78-6.57-6.16-10.26-6.16-.97,0-1.77,1.51-2.2,4.15-.99,6.02.32,14.58,2.34,15.27Z"/>
  <path class="cls-4" d="M32.13,25.91c-.1-.15-.29-.21-.46-.16-.17.05-.29.2-.3.38,0,.12-.08,2.42,1.48,4.41-.87-.32-2.03-.92-3.18-1.99-.12-.11-.3-.14-.45-.08-.15.07-.25.22-.25.38,0,.04.04,4.03,3.66,6.12-.46.1-1.09.17-1.86.12-.18-.02-.33.08-.4.23-.07.15-.05.34.06.46.07.07,1.66,1.83,3.97,1.91.06,0,.12,0,.18,0,1.22,0,2.39-.5,3.49-1.44-1.29-1.74-2.03-3.77-2.07-5.48-.01-.66.1-1.22.3-1.68-.81-.34-2.88-1.34-4.16-3.19Z"/>
  <path class="cls-6" d="M56.15,21.59c-3.7,0-7.64,3.38-10.27,6.16.55-.1,1.14-.06,1.76.2.51.21.87.62,1.11,1.15.81-.34,2.88-1.34,4.16-3.19.1-.15.29-.21.46-.16.17.05.29.2.3.38,0,.12.08,2.42-1.48,4.41.87-.33,2.03-.92,3.18-1.99.12-.11.3-.14.45-.08.15.07.25.22.25.38,0,.04-.04,4.03-3.66,6.12.46.1,1.08.17,1.86.12.18-.02.33.08.4.23.07.15.05.34-.06.46-.07.07-1.66,1.83-3.97,1.91-.06,0-.12,0-.18,0-1.22,0-2.39-.5-3.49-1.44-.32.44-.68.85-1.07,1.24,3.13,1.89,7.78,4.29,10.1,3.5,2.02-.69,3.33-9.25,2.34-15.27-.44-2.64-1.24-4.15-2.2-4.15Z"/>
  <path class="cls-6" d="M41.84,39.42c-.75-.34-1.45-.79-2.07-1.32-1.32.9-7.42,5.45-8.12,12.87.48-.92,1.19-2.08,2.2-2.89.08-.06.17-.09.26-.09.07,0,.13.02.19.05.15.08.23.23.23.39,0,.04-.18,3.79,2.1,6.6.03-.26.05-.58.08-.9.23-3.04.71-9.27,5.14-14.71Z"/>
  <path class="cls-6" d="M43.2,39.42c4.43,5.45,4.91,11.68,5.14,14.71.02.32.05.64.08.9,2.28-2.82,2.1-6.56,2.1-6.6,0-.16.08-.32.23-.39.15-.08.32-.06.45.04,1.01.81,1.72,1.96,2.2,2.89-.7-7.42-6.8-11.97-8.12-12.87-.63.53-1.32.97-2.07,1.32Z"/>
  <path class="cls-4" d="M65.13,59.47c-.48-.62-1.18-1.02-1.96-1.12-.78-.1-1.56.11-2.18.59-10.08,7.78-16.04,11.99-18.25,13.33-.13.08-.3.08-.43,0-2.21-1.34-8.17-5.55-18.25-13.33-.54-.41-1.17-.61-1.8-.61-.88,0-1.76.39-2.34,1.15-.99,1.29-.76,3.15.53,4.14,19.37,14.95,20.81,14.95,22.08,14.95s2.71,0,22.08-14.95c1.29-.99,1.53-2.85.53-4.14Z"/>
  <path class="cls-4" d="M50.65,37.7c2.31-.09,3.9-1.84,3.97-1.91.11-.13.14-.31.06-.46-.08-.15-.23-.25-.4-.23-.78.06-1.41-.02-1.86-.12,3.62-2.09,3.66-6.08,3.66-6.12,0-.17-.1-.32-.25-.38-.15-.07-.33-.04-.45.08-1.15,1.07-2.31,1.67-3.18,1.99,1.56-1.99,1.49-4.3,1.48-4.41,0-.18-.13-.33-.3-.38-.17-.05-.36.02-.46.16-1.28,1.85-3.35,2.85-4.16,3.19.2.46.32,1.02.3,1.69-.04,1.7-.78,3.74-2.07,5.48,1.1.94,2.27,1.44,3.49,1.44.06,0,.12,0,.18,0Z"/>
  <path class="cls-7" d="M48.22,30.77c.01-.62-.09-1.71-.91-2.05-2.38-1.01-4.41,2.55-4.43,2.59-.07.13-.21.21-.36.21h0c-.15,0-.29-.08-.36-.21-.02-.03-1.58-2.77-3.57-2.77-.28,0-.57.05-.86.18-.82.35-.92,1.44-.91,2.05.05,2.46,2.06,6.58,5.7,8.04,3.64-1.46,5.65-5.58,5.7-8.04ZM39.73,32.94s0-.11,0-.13c.02-.17.13-.33.29-.38.16-.05.33-.02.44.1,1.12,1.3,2.85,1.31,3.97.02.11-.13.29-.17.45-.12.16.06.27.2.28.37,0,.06,0,.09,0,.13,0,1.49-1.22,2.7-2.73,2.7s-2.73-1.21-2.73-2.7Z"/>
  <path class="cls-1" d="M42.46,35.65c1.5,0,2.73-1.21,2.73-2.7,0-.04,0-.07,0-.13,0-.17-.12-.32-.28-.37-.16-.05-.34,0-.45.12-1.13,1.29-2.85,1.28-3.97-.02-.11-.13-.28-.15-.44-.1-.16.05-.28.21-.29.38,0,.01,0,.11,0,.13,0,1.49,1.22,2.7,2.73,2.7Z"/>
  <g>
    <path class="cls-2" d="M26.54,23.03c.11-.29.23-.55.36-.78-9.29-5.22-17.5-10.34-17.5-11.86.17-.58,3.2-1.7,6.87-2.59,1.43-.35,2.95-.66,4.45-.89,1.67-.26,3.31-.43,4.73-.43.59,0,1.15.03,1.65.09,1.91.23,4.65,4.05,7.33,8.75.8,1.41,1.59,2.89,2.36,4.38,1.58,3.1,3.03,6.22,4.14,8.75.18.21.36.41.51.61.46.45.83.92,1.08,1.28.25-.36.61-.83,1.07-1.27.16-.19.33-.4.52-.61,1.11-2.53,2.56-5.65,4.14-8.75.76-1.49,1.56-2.98,2.36-4.38,2.67-4.71,5.42-8.52,7.33-8.75.5-.06,1.06-.09,1.65-.09,1.42,0,3.06.16,4.73.43,1.5.23,3.02.54,4.45.89,3.67.89,6.7,2.01,6.87,2.58,0,1.53-8.21,6.66-17.5,11.88.13.23.25.49.36.78,2.97-1.67,5.96-3.4,8.63-5.05,5.31-3.28,9.34-6.23,9.34-7.61,0-.27-.15-.53-.43-.79-.97-.86-3.94-1.88-7.32-2.67-.07-.02-.15-.03-.22-.05-.42-.09-.83-.19-1.26-.27-.14-.03-.28-.06-.42-.09-.52-.1-1.04-.2-1.56-.29-.02,0-.05,0-.07-.01-2.79-.46-5.51-.69-7.34-.47-2.37.29-5.53,4.81-8.4,9.96-.04.07-.08.14-.12.21-3.09,5.57-5.81,11.8-6.81,14.13-.99-2.33-3.72-8.56-6.81-14.13-.04-.07-.08-.14-.12-.21-2.87-5.14-6.03-9.67-8.4-9.96-1.83-.22-4.55,0-7.35.47,0,0,0,0,0,0-.55.09-1.11.2-1.66.31-.1.02-.2.04-.31.06-.47.1-.93.2-1.39.3-.06.01-.12.03-.17.04-3.39.79-6.36,1.81-7.33,2.67-.29.25-.43.52-.43.79,0,1.38,4.03,4.33,9.34,7.61,2.67,1.65,5.66,3.39,8.63,5.05Z"/>
    <path class="cls-2" d="M58.15,22.25c-.53-.97-1.2-1.49-2-1.49h0c-4.65,0-9.45,4.7-12.03,7.69-.18.21-.36.42-.52.61-.46.45-.83.92-1.07,1.27-.25-.36-.62-.83-1.08-1.28-.16-.19-.33-.39-.51-.61-2.59-2.99-7.39-7.69-12.03-7.69-.8,0-1.47.52-2,1.49-.13.23-.25.49-.36.78-.27.71-.5,1.55-.67,2.58-.92,5.56.03,15.22,2.89,16.2.38.13.8.19,1.26.19,1.75,0,4.02-.85,6.16-1.9-2.42,2.47-5.26,6.48-5.42,11.82-.02.52-.03.97.38,1.08.4.1.56-.22.9-.92.35-.71.89-1.81,1.67-2.69.09,1.5.56,4.4,2.68,6.65.16.17.31.21.43.21.07,0,.13-.01.16-.03.42-.15.45-.62.56-2.01.23-2.96.7-9.02,4.98-14.27,4.28,5.25,4.76,11.32,4.98,14.27.11,1.39.14,1.86.56,2.01.04.01.09.03.16.03.12,0,.27-.04.43-.21,2.11-2.26,2.58-5.16,2.68-6.65.78.88,1.32,1.98,1.67,2.69.34.7.5,1.01.9.92.41-.1.4-.55.38-1.08-.16-5.34-3-9.35-5.42-11.82,2.14,1.05,4.41,1.9,6.16,1.9.46,0,.88-.06,1.26-.19,2.86-.97,3.81-10.64,2.89-16.2-.17-1.02-.4-1.87-.67-2.57-.11-.29-.23-.55-.36-.78ZM56.01,41.01c-2.31.79-6.97-1.62-10.1-3.5.39-.39.74-.81,1.07-1.24,1.29-1.74,2.03-3.77,2.07-5.48.01-.66-.1-1.22-.3-1.69-.24-.54-.61-.94-1.11-1.15-.62-.26-1.21-.3-1.76-.2,2.62-2.78,6.57-6.16,10.27-6.16.97,0,1.77,1.51,2.2,4.15.99,6.02-.32,14.58-2.34,15.27ZM53.39,50.98c-.48-.92-1.19-2.08-2.2-2.89-.13-.1-.31-.12-.45-.04-.15.08-.23.23-.23.39,0,.04.18,3.78-2.1,6.6-.03-.26-.05-.58-.08-.9-.23-3.04-.71-9.27-5.14-14.71.75-.34,1.45-.79,2.07-1.32,1.32.9,7.42,5.45,8.12,12.87ZM34.53,48.44c0-.16-.08-.32-.23-.39-.06-.03-.13-.05-.19-.05-.09,0-.18.03-.26.09-1.01.81-1.72,1.96-2.2,2.89.7-7.42,6.8-11.97,8.12-12.87.63.53,1.32.97,2.07,1.32-4.43,5.45-4.91,11.68-5.14,14.71-.02.32-.05.64-.08.9-2.28-2.82-2.1-6.56-2.1-6.6ZM26.69,25.74c.44-2.64,1.24-4.15,2.2-4.15,3.69,0,7.64,3.38,10.26,6.16-.55-.1-1.14-.06-1.75.2-.51.21-.87.62-1.11,1.15-.2.46-.32,1.02-.3,1.68.04,1.7.78,3.74,2.07,5.48.32.44.68.86,1.07,1.24-3.13,1.89-7.78,4.29-10.1,3.5-2.02-.69-3.33-9.25-2.34-15.27ZM36.82,30.77c-.01-.62.09-1.71.91-2.05.29-.12.58-.18.86-.18,1.98,0,3.55,2.74,3.57,2.77.07.13.21.21.36.21h0c.15,0,.29-.08.36-.21.02-.04,2.05-3.6,4.43-2.59.82.35.92,1.44.91,2.05-.05,2.46-2.06,6.58-5.7,8.04-3.64-1.46-5.65-5.58-5.7-8.04Z"/>
    <path class="cls-2" d="M60.48,58.27c-9.74,7.52-15.61,11.68-17.96,13.14-2.35-1.46-8.22-5.62-17.96-13.14-.59-.45-1.26-.69-1.95-.76-1.25-.12-2.54.38-3.36,1.44-1.28,1.65-.97,4.03.68,5.31,19.59,15.12,21.05,15.12,22.59,15.12s3,0,22.59-15.12c1.65-1.28,1.96-3.66.68-5.31-.62-.8-1.51-1.31-2.51-1.44-.29-.04-.57-.03-.85,0-.7.07-1.37.32-1.95.77ZM20.44,63.61c-1.29-.99-1.53-2.85-.53-4.14.58-.75,1.46-1.15,2.34-1.15.63,0,1.26.2,1.8.61,10.08,7.78,16.04,11.99,18.25,13.33.13.08.3.08.43,0,2.21-1.34,8.17-5.55,18.25-13.33.62-.48,1.4-.69,2.18-.59.78.1,1.48.5,1.96,1.12.99,1.29.76,3.15-.53,4.14-19.37,14.95-20.81,14.95-22.08,14.95s-2.71,0-22.08-14.95Z"/>
  </g>
</svg>