<?xml version="1.0" encoding="UTF-8"?>
<svg id="ICONS" xmlns="http://www.w3.org/2000/svg" viewBox="0 0 85.04 85.04">
  <defs>
    <style>
      .cls-1, .cls-2 {
        fill: #fff385;
      }

      .cls-2 {
        stroke: #231f20;
        stroke-miterlimit: 10;
        stroke-width: .75px;
      }

      .cls-3 {
        fill: #1d1d1b;
      }

      .cls-4 {
        fill: #ff9ef0;
      }
    </style>
  </defs>
  <g>
    <path class="cls-4" d="M45.65,79.31c-.2.01-.4.03-.61.03h-5.9c-.21,0-.41-.01-.61-.03.25.64.88,1.76,2.31,2.28.79.29,1.7.29,2.49,0,1.43-.52,2.06-1.64,2.31-2.28Z"/>
    <path class="cls-4" d="M34.31,73.15c-.24.45-.78,1.62-.43,2.75.27.87,1.02,1.57,2.24,2.06.88.36,1.89.54,3.01.54h5.9c1.12,0,2.14-.18,3.02-.54,1.21-.5,1.97-1.19,2.24-2.06.35-1.13-.18-2.3-.43-2.75h-15.55Z"/>
    <path class="cls-2" d="M33.54,27c-.07-.45-.12-.91-.12-1.39,0-2.79,1.33-5.26,3.39-6.84-.65-1.76-1.02-3.66-1.02-5.64,0-2.63.61-5.15,1.82-7.51.08-.15.06-.33-.05-.46s-.28-.18-.44-.14c-7.98,2.31-13.55,9.72-13.55,18.02,0,4.12,1.35,7.93,3.62,11.03.04-.15.08-.31.15-.46.44-.87,3.61-4.09,6.19-6.63Z"/>
    <path class="cls-2" d="M59.78,27.79c-2.35,1.21-4.88,1.82-7.51,1.82-.85,0-1.68-.08-2.49-.21-1.41,2.86-4.34,4.84-7.74,4.84-.98,0-1.91-.17-2.79-.47-2.43,2.45-5.25,5.21-6.09,5.65,2.72,1.53,5.85,2.41,9.18,2.41,8.3,0,15.72-5.57,18.02-13.55.05-.16,0-.33-.14-.44-.13-.11-.31-.12-.46-.05Z"/>
    <path class="cls-2" d="M56.34,7.21c-1.25-6.41-3.04-6.42-4.29,0-3.4.82-5.12,1.64-5.12,2.43s1.72,1.61,5.12,2.43c.62,3.21,1.35,4.83,2.15,4.83s1.52-1.63,2.15-4.83c3.4-.82,5.12-1.64,5.12-2.43s-1.72-1.61-5.12-2.43Z"/>
    <path class="cls-1" d="M32.77,38.69c.63-.32,3.08-2.68,5.64-5.26-2.25-1.05-3.97-3.04-4.66-5.47-2.73,2.7-5.33,5.38-5.66,6.04-.58,1.17.43,2.91,1.1,3.58.67.67,2.41,1.68,3.58,1.1Z"/>
    <path class="cls-1" d="M42.05,33.41c4.3,0,7.79-3.5,7.79-7.79s-3.5-7.79-7.79-7.79-7.79,3.5-7.79,7.79,3.5,7.79,7.79,7.79ZM44.16,21.35c1.32,0,2.4,1.07,2.4,2.4s-1.07,2.4-2.4,2.4-2.4-1.07-2.4-2.4,1.07-2.4,2.4-2.4ZM40.03,20.95c.16-.08.35-.05.48.08.13.13.16.32.08.48-.29.6-.44,1.24-.44,1.89,0,2.4,1.95,4.35,4.35,4.35.66,0,1.29-.15,1.89-.44.16-.08.35-.04.48.08.13.13.16.32.08.48-.88,1.81-2.66,2.93-4.66,2.93-2.86,0-5.19-2.33-5.19-5.19,0-2,1.12-3.79,2.93-4.66Z"/>
    <path class="cls-1" d="M37.93,25.62c0,2.4,1.95,4.35,4.35,4.35,1.28,0,2.46-.55,3.28-1.49-.35.07-.7.11-1.06.11-2.86,0-5.19-2.33-5.19-5.19,0-.36.04-.72.11-1.06-.94.81-1.49,1.99-1.49,3.28Z"/>
    <path class="cls-4" d="M44.16,26.14c1.32,0,2.4-1.07,2.4-2.4s-1.07-2.4-2.4-2.4-2.4,1.07-2.4,2.4,1.07,2.4,2.4,2.4Z"/>
    <path class="cls-4" d="M34.65,72.32h14.87c-.74-2.33-3.26-11.7-.92-24.54h-13.03c2.35,12.84-.18,22.21-.92,24.54ZM42.27,51.43c1.14,0,2.06.92,2.06,2.06s-.92,2.06-2.06,2.06-2.06-.92-2.06-2.06.92-2.06,2.06-2.06ZM42.27,58.58c1.14,0,2.06.92,2.06,2.06s-.92,2.06-2.06,2.06-2.06-.92-2.06-2.06.92-2.06,2.06-2.06ZM42.27,64.88c1.14,0,2.06.92,2.06,2.06s-.92,2.06-2.06,2.06-2.06-.92-2.06-2.06.92-2.06,2.06-2.06Z"/>
    <circle class="cls-1" cx="42.27" cy="66.94" r="2.06"/>
    <circle class="cls-1" cx="42.27" cy="60.64" r="2.06"/>
    <circle class="cls-1" cx="42.27" cy="53.49" r="2.06"/>
    <path class="cls-4" d="M35.3,46.94h13.58c1.53-2.5.61-4.33-.22-5.3-4.22,1.51-8.83,1.46-13.01-.14-.79.86-1.99,2.77-.35,5.45Z"/>
  </g>
  <g>
    <path class="cls-3" d="M39.25,33.77c.88.3,1.81.47,2.79.47,3.4,0,6.33-1.98,7.74-4.84.56-1.15.89-2.43.89-3.79,0-4.76-3.87-8.63-8.63-8.63-1.97,0-3.78.67-5.23,1.79-2.06,1.58-3.39,4.05-3.39,6.84,0,.47.05.93.12,1.39-2.59,2.55-5.76,5.76-6.19,6.63-.07.15-.11.3-.15.46-.42,1.57.71,3.39,1.41,4.08.6.59,2,1.52,3.38,1.52.4,0,.79-.08,1.16-.26,0,0,.02-.01.02-.01.84-.44,3.66-3.19,6.09-5.65ZM29.19,37.59c-.67-.67-1.68-2.41-1.1-3.58.33-.66,2.93-3.34,5.66-6.04.69,2.43,2.41,4.42,4.66,5.47-2.56,2.58-5.01,4.94-5.64,5.26-1.17.58-2.91-.43-3.58-1.1ZM34.25,25.62c0-4.3,3.5-7.79,7.79-7.79s7.79,3.5,7.79,7.79-3.5,7.79-7.79,7.79-7.79-3.5-7.79-7.79Z"/>
    <path class="cls-3" d="M37.1,25.62c0,2.86,2.33,5.19,5.19,5.19,2,0,3.79-1.12,4.66-2.93.08-.16.05-.35-.08-.48-.13-.12-.32-.16-.48-.08-.6.29-1.24.44-1.89.44-2.4,0-4.35-1.95-4.35-4.35,0-.66.15-1.29.44-1.89.08-.16.05-.35-.08-.48-.13-.13-.32-.16-.48-.08-1.81.88-2.93,2.66-2.93,4.66ZM39.31,23.4c0,2.86,2.33,5.19,5.19,5.19.36,0,.72-.04,1.06-.11-.81.94-1.99,1.49-3.28,1.49-2.4,0-4.35-1.95-4.35-4.35,0-1.29.55-2.46,1.49-3.28-.07.35-.11.7-.11,1.06Z"/>
    <path class="cls-3" d="M49.5,47.5c2.13-3.35.42-5.76-.42-6.64-.12-.12-.29-.16-.45-.1-4.19,1.57-8.79,1.52-12.93-.14-.15-.06-.33-.03-.45.09-.72.69-2.86,3.22-.58,6.8,2.74,14.4-.75,24.42-.98,25.05-.16.25-1.13,1.89-.61,3.59.35,1.13,1.26,2,2.72,2.6.56.23,1.17.38,1.81.48.18.61.86,2.4,2.94,3.16.49.18,1.01.27,1.53.27s1.04-.09,1.53-.27c2.09-.76,2.77-2.55,2.94-3.16.64-.1,1.25-.26,1.81-.48,1.46-.6,2.37-1.47,2.72-2.6.52-1.7-.45-3.34-.61-3.59-.23-.62-3.71-10.64-.98-25.05ZM50.29,75.9c-.27.87-1.02,1.57-2.24,2.06-.88.36-1.89.54-3.02.54h-5.9c-1.12,0-2.14-.18-3.01-.54-1.21-.5-1.97-1.19-2.24-2.06-.35-1.13.18-2.3.43-2.75h15.55c.24.45.78,1.62.43,2.75ZM40.84,81.59c-1.43-.52-2.06-1.64-2.31-2.28.2.01.4.03.61.03h5.9c.21,0,.41-.01.61-.03-.25.64-.88,1.76-2.31,2.28-.79.29-1.7.29-2.49,0ZM48.66,41.64c.83.97,1.75,2.8.22,5.3h-13.58c-1.64-2.68-.44-4.59.35-5.45,4.18,1.6,8.79,1.66,13.01.14ZM48.6,47.78c-2.35,12.84.18,22.21.92,24.54h-14.87c.74-2.33,3.26-11.7.92-24.54h13.03Z"/>
  </g>
</svg>