<?xml version="1.0" encoding="UTF-8"?>
<svg id="ICONS" xmlns="http://www.w3.org/2000/svg" viewBox="0 0 85.04 85.04">
  <defs>
    <style>
      .cls-1 {
        fill: none;
      }

      .cls-2 {
        fill: #fff385;
      }

      .cls-3 {
        fill: #1d1d1b;
      }

      .cls-4, .cls-5 {
        fill: #fff;
      }

      .cls-6 {
        fill: #ff9ef0;
      }

      .cls-5 {
        stroke: #231f20;
        stroke-miterlimit: 10;
        stroke-width: .75px;
      }
    </style>
  </defs>
  <g>
    <path class="cls-1" d="M40.82,24.95c.48-.51,1.09-.77,1.7-.77s1.22.25,1.7.77c1.27-.63,2.16-1.93,2.16-3.45,0-.54-.11-1.06-.32-1.52-.71,1.61-2.16,2.38-3.55,2.38s-2.84-.77-3.55-2.38c-.2.47-.32.98-.32,1.53,0,1.51.88,2.82,2.16,3.45Z"/>
    <path class="cls-1" d="M38.8,33.8c1.41,1.49,2.75,3.03,3.72,4.17.97-1.14,2.31-2.68,3.72-4.17-.35-1.31-1.37-2.34-2.67-2.71-.33.17-.69.26-1.04.26s-.71-.09-1.04-.26c-1.31.37-2.32,1.4-2.67,2.71Z"/>
    <path class="cls-2" d="M49.35,46.22c2.32-.72,4.32-1.3,6.06-1.79.86-2.01,1.81-4.74,1.05-5.47-.75-.71-3.39.38-5.36,1.35-.48,1.7-1.06,3.65-1.75,5.91Z"/>
    <path class="cls-2" d="M35.69,46.22c-.69-2.26-1.27-4.21-1.75-5.91-1.97-.97-4.61-2.07-5.36-1.35-.76.73.2,3.46,1.05,5.47,1.74.49,3.73,1.08,6.06,1.79Z"/>
    <path class="cls-2" d="M35.69,59.87c-2.32.72-4.32,1.3-6.06,1.79-.86,2.01-1.81,4.74-1.05,5.47.17.16.43.23.76.23,1.14,0,3.08-.83,4.6-1.58.48-1.7,1.06-3.65,1.75-5.91Z"/>
    <path class="cls-2" d="M49.35,59.87c.69,2.26,1.27,4.21,1.75,5.91,1.97.97,4.62,2.07,5.36,1.35.76-.73-.19-3.46-1.05-5.47-1.74-.49-3.73-1.08-6.06-1.79Z"/>
    <path class="cls-2" d="M44.99,29.07c-.14.57-.36,1.04-.65,1.38,1.18.5,2.1,1.46,2.55,2.66.39-.4.78-.79,1.16-1.16-.66-1.28-1.74-2.3-3.07-2.88Z"/>
    <path class="cls-2" d="M36.99,31.95c.38.37.77.77,1.16,1.17.46-1.19,1.38-2.16,2.55-2.66-.29-.35-.51-.82-.65-1.38-1.33.57-2.41,1.6-3.07,2.88Z"/>
    <path class="cls-2" d="M52.39,29.62c-.79-.2-5.62,4.6-9.55,9.27-.16.19-.48.19-.64,0-3.93-4.67-8.74-9.48-9.62-9.22-.32.55.52,5.38,4.14,17.06.05.15,0,.31-.1.42-.11.11-.27.15-.42.1-11.68-3.62-16.51-4.46-17.11-4.07-.22.82,4.6,5.62,9.27,9.55.09.08.15.2.15.32s-.05.24-.15.32c-4.67,3.93-9.49,8.73-9.22,9.62.54.32,5.38-.52,17.06-4.14.04-.01.08-.02.12-.02.11,0,.22.04.29.12.11.11.15.27.1.42-3.62,11.68-4.46,16.52-4.07,17.11.8.2,5.62-4.6,9.55-9.27.16-.19.48-.19.64,0,3.93,4.67,8.74,9.48,9.62,9.22.32-.55-.52-5.38-4.14-17.06-.05-.15,0-.31.1-.42.11-.11.27-.15.42-.1,11.68,3.62,16.51,4.45,17.11,4.07.22-.82-4.6-5.62-9.27-9.55-.09-.08-.15-.2-.15-.32s.05-.24.15-.32c4.67-3.93,9.49-8.73,9.22-9.62-.55-.32-5.39.52-17.06,4.14-.15.05-.31,0-.42-.1-.11-.11-.15-.27-.1-.42,3.62-11.68,4.46-16.52,4.07-17.11ZM45.49,47.98c.87.51,1.59,1.23,2.1,2.1,9.45-3.74,9.91-2.88,10.08-2.54.39.78-1.23,2.63-4.83,5.51,3.59,2.88,5.22,4.73,4.83,5.51-.06.13-.17.34-.79.34-1.02,0-3.43-.55-9.29-2.88-.51.87-1.23,1.59-2.1,2.1,3.74,9.45,2.88,9.91,2.54,10.08-.08.04-.16.06-.26.06-.89,0-2.66-1.64-5.25-4.88-2.88,3.59-4.73,5.21-5.51,4.83-.34-.17-1.2-.63,2.54-10.08-.87-.51-1.59-1.23-2.1-2.1-5.86,2.32-8.27,2.88-9.29,2.88-.63,0-.73-.21-.79-.34-.39-.78,1.23-2.63,4.83-5.51-3.59-2.88-5.22-4.73-4.83-5.51.17-.34.63-1.2,10.08,2.54.51-.87,1.23-1.59,2.1-2.1-3.74-9.45-2.88-9.91-2.54-10.08.78-.39,2.63,1.23,5.51,4.83,2.88-3.59,4.73-5.21,5.51-4.83.34.17,1.2.63-2.54,10.08Z"/>
    <path class="cls-2" d="M40.3,58.48c-1.53,3.88-2.89,7.98-2.83,8.94.66-.26,2.93-2.71,4.72-4.98.16-.2.5-.2.66,0,1.75,2.22,3.96,4.61,4.73,4.95.03-1.02-1.33-5.07-2.83-8.9-.69.28-1.43.44-2.22.44s-1.53-.16-2.22-.44Z"/>
    <path class="cls-2" d="M37.08,50.83c-3.88-1.53-7.96-2.89-8.94-2.83.26.66,2.71,2.93,4.99,4.72.1.08.16.2.16.33s-.06.25-.16.33c-2.22,1.75-4.61,3.96-4.95,4.73.01,0,.02,0,.03,0,1.07,0,5.08-1.34,8.87-2.83-.28-.69-.44-1.43-.44-2.22s.16-1.53.44-2.22Z"/>
    <path class="cls-2" d="M47.96,55.26c3.88,1.52,7.97,2.88,8.94,2.83-.26-.66-2.71-2.93-4.99-4.72-.1-.08-.16-.2-.16-.33s.06-.25.16-.33c2.22-1.75,4.61-3.96,4.95-4.73-.01,0-.02,0-.03,0-1.07,0-5.08,1.34-8.87,2.83.28.69.44,1.43.44,2.22s-.16,1.53-.44,2.22Z"/>
    <path class="cls-2" d="M47.57,38.67c-.66.26-2.93,2.71-4.72,4.99-.16.2-.5.2-.66,0-1.75-2.22-3.96-4.61-4.73-4.95-.03,1.02,1.33,5.07,2.83,8.9.69-.28,1.43-.44,2.22-.44s1.53.16,2.22.44c1.53-3.88,2.89-7.98,2.83-8.94Z"/>
    <circle class="cls-6" cx="42.52" cy="53.05" r="5.04"/>
    <path class="cls-2" d="M39.93,27.16c.06-.6.2-1.11.41-1.52-1.49-.79-2.52-2.34-2.52-4.13,0-.28.04-.54.08-.81-.5.45-1.03.91-1.58,1.36.2,2.27,1.63,4.19,3.61,5.11Z"/>
    <path class="cls-2" d="M44.7,25.64c.21.41.35.92.41,1.52,1.99-.91,3.41-2.83,3.61-5.11-.55-.45-1.08-.91-1.58-1.36.05.26.08.53.08.81,0,1.8-1.03,3.35-2.52,4.13Z"/>
    <path class="cls-2" d="M42.52,30.51c.89,0,1.79-.85,1.79-2.75s-.9-2.75-1.79-2.75-1.79.85-1.79,2.75.9,2.75,1.79,2.75Z"/>
    <path class="cls-5" d="M36.32,22.05c.55-.45,1.08-.91,1.58-1.36.35-.31.67-.61.98-.89-.23-.59-.36-1.28-.36-2.09,0-1.51.47-2.62,1.17-3.38-2.03-1.95-5.83-5.37-8.18-6.03-2.26-.63-14.27-1.05-15.19.97-.9,1.99,5.07,5.82,7.75,7.41-2.68,1.59-8.66,5.42-7.75,7.41.51,1.12,4.43,1.49,8.2,1.49,3.04,0,5.98-.24,6.99-.52,1.13-.32,2.6-1.28,4.05-2.41.25-.2.51-.4.76-.61Z"/>
    <path class="cls-5" d="M60.96,16.69c2.68-1.59,8.66-5.42,7.75-7.41-.92-2.02-12.93-1.6-15.19-.97-2.35.66-6.15,4.08-8.18,6.03.69.76,1.17,1.87,1.17,3.38,0,.8-.13,1.5-.36,2.09.31.29.64.59.98.89.5.45,1.03.91,1.58,1.36.25.21.5.41.76.61,1.45,1.13,2.92,2.09,4.05,2.41,1.01.28,3.95.52,6.99.52,3.78,0,7.69-.37,8.2-1.49.9-1.99-5.07-5.82-7.75-7.41Z"/>
    <path class="cls-4" d="M42.52,21.52c1.57,0,3.16-1.18,3.16-3.8s-1.59-3.8-3.16-3.8-3.16,1.18-3.16,3.8,1.59,3.8,3.16,3.8Z"/>
  </g>
  <g>
    <path class="cls-3" d="M48.03,37.9c-.78-.39-2.63,1.23-5.51,4.83-2.88-3.59-4.73-5.21-5.51-4.83-.34.17-1.2.63,2.54,10.08-.87.51-1.59,1.23-2.1,2.1-9.45-3.74-9.91-2.88-10.08-2.54-.39.78,1.23,2.63,4.83,5.51-3.59,2.88-5.22,4.73-4.83,5.51.06.13.17.34.79.34,1.02,0,3.43-.55,9.29-2.88.51.87,1.23,1.59,2.1,2.1-3.74,9.45-2.88,9.91-2.54,10.08.78.38,2.63-1.23,5.51-4.83,2.6,3.24,4.36,4.88,5.25,4.88.1,0,.18-.02.26-.06.34-.17,1.2-.63-2.54-10.08.87-.51,1.59-1.23,2.1-2.1,5.86,2.32,8.27,2.88,9.29,2.88.63,0,.73-.21.79-.34.39-.78-1.23-2.63-4.83-5.51,3.59-2.88,5.22-4.73,4.83-5.51-.17-.34-.63-1.2-10.08,2.54-.51-.87-1.23-1.59-2.1-2.1,3.74-9.45,2.88-9.91,2.54-10.08ZM47.56,53.05c0,2.78-2.26,5.04-5.04,5.04s-5.04-2.26-5.04-5.04,2.26-5.04,5.04-5.04,5.04,2.26,5.04,5.04ZM28.21,58.1s-.02,0-.03,0c.34-.77,2.73-2.97,4.95-4.73.1-.08.16-.2.16-.33s-.06-.25-.16-.33c-2.27-1.8-4.72-4.07-4.99-4.72.98-.06,5.06,1.31,8.94,2.83-.28.69-.44,1.43-.44,2.22s.16,1.53.44,2.22c-3.79,1.49-7.8,2.83-8.87,2.83ZM47.57,67.39c-.77-.34-2.97-2.73-4.73-4.95-.16-.2-.5-.2-.66,0-1.8,2.27-4.07,4.72-4.72,4.98-.06-.96,1.31-5.06,2.83-8.94.69.28,1.43.44,2.22.44s1.53-.16,2.22-.44c1.51,3.83,2.86,7.88,2.83,8.9ZM56.83,47.99s.02,0,.03,0c-.34.77-2.73,2.97-4.95,4.73-.1.08-.16.2-.16.33s.06.25.16.33c2.27,1.8,4.72,4.07,4.99,4.72-.97.05-5.06-1.31-8.94-2.83.28-.69.44-1.43.44-2.22s-.16-1.53-.44-2.22c3.79-1.49,7.79-2.83,8.87-2.83ZM44.74,47.61c-.69-.28-1.43-.44-2.22-.44s-1.53.16-2.22.44c-1.51-3.83-2.86-7.88-2.83-8.9.77.34,2.97,2.73,4.73,4.95.16.2.5.2.66,0,1.79-2.27,4.07-4.72,4.72-4.99.06.96-1.31,5.06-2.83,8.94Z"/>
    <path class="cls-3" d="M48.72,22.05c-.2,2.27-1.63,4.19-3.61,5.11-.06-.6-.2-1.11-.41-1.52,1.49-.79,2.52-2.34,2.52-4.13,0-.28-.04-.54-.08-.81-.35-.31-.67-.61-.98-.89.23-.59.36-1.28.36-2.09,0-1.51-.47-2.62-1.17-3.38-.77-.84-1.82-1.26-2.83-1.26s-2.06.41-2.83,1.26c-.69.76-1.17,1.87-1.17,3.38,0,.8.13,1.5.36,2.09-.31.29-.64.59-.98.89-.05.26-.08.53-.08.81,0,1.8,1.03,3.35,2.52,4.13-.21.41-.35.92-.41,1.52-1.99-.91-3.41-2.83-3.61-5.11-.25.21-.5.41-.76.61.41,2.46,2.09,4.5,4.35,5.4,0,.06,0,.11.01.17-1.52.6-2.78,1.71-3.57,3.13-1.76-1.64-3.34-2.77-4.09-2.46-.48.2-1.39.59,1.68,11.42.48,1.7,1.06,3.65,1.75,5.91-2.32-.72-4.32-1.3-6.06-1.79-10.68-3.01-11.07-2.11-11.26-1.63-.7,1.68,5.83,7.5,9.08,10.25-3.25,2.76-9.78,8.58-9.08,10.25.2.47.58,1.38,11.26-1.63,1.74-.49,3.73-1.08,6.06-1.79-.69,2.26-1.27,4.21-1.75,5.91-3.06,10.83-2.15,11.22-1.68,11.42.08.04.18.05.28.05,1.97,0,7.35-6.04,9.97-9.13,2.76,3.25,8.58,9.78,10.25,9.08.48-.2,1.39-.59-1.68-11.42-.48-1.7-1.06-3.65-1.75-5.91,2.32.72,4.32,1.3,6.06,1.79,10.68,3.01,11.07,2.11,11.26,1.63.7-1.68-5.83-7.5-9.08-10.25,3.25-2.76,9.78-8.58,9.08-10.25-.2-.47-.59-1.38-11.26,1.63-1.74.49-3.73,1.08-6.06,1.79.69-2.26,1.27-4.21,1.75-5.91,3.06-10.83,2.15-11.22,1.68-11.42-.75-.31-2.33.82-4.09,2.46-.79-1.41-2.05-2.52-3.57-3.13,0-.06,0-.11.01-.17,2.26-.9,3.94-2.93,4.35-5.4-.25-.2-.51-.4-.76-.61ZM48.32,46.73c-.05.15,0,.31.1.42.11.11.27.15.42.1,11.68-3.62,16.51-4.46,17.06-4.14.27.88-4.55,5.68-9.22,9.62-.09.08-.15.2-.15.32s.05.24.15.32c4.67,3.93,9.49,8.73,9.27,9.55-.6.38-5.43-.45-17.11-4.07-.15-.05-.31,0-.42.1-.11.11-.15.27-.1.42,3.62,11.68,4.46,16.52,4.14,17.06-.87.26-5.68-4.55-9.62-9.22-.16-.19-.48-.19-.64,0-3.93,4.67-8.75,9.47-9.55,9.27-.39-.59.45-5.43,4.07-17.11.05-.15,0-.31-.1-.42-.08-.08-.19-.12-.29-.12-.04,0-.08,0-.12.02-11.68,3.62-16.52,4.45-17.06,4.14-.27-.88,4.55-5.68,9.22-9.62.09-.08.15-.2.15-.32s-.05-.24-.15-.32c-4.67-3.93-9.49-8.73-9.27-9.55.6-.39,5.43.45,17.11,4.07.15.05.31,0,.42-.1.11-.11.15-.27.1-.42-3.62-11.68-4.46-16.52-4.14-17.06.88-.26,5.68,4.55,9.62,9.22.16.19.48.19.64,0,3.93-4.67,8.75-9.47,9.55-9.27.39.59-.45,5.43-4.07,17.11ZM40.73,27.77c0-1.9.9-2.75,1.79-2.75s1.79.85,1.79,2.75-.9,2.75-1.79,2.75-1.79-.85-1.79-2.75ZM42.52,31.35c.36,0,.71-.09,1.04-.26,1.31.37,2.32,1.4,2.67,2.71-1.41,1.49-2.75,3.03-3.72,4.17-.97-1.14-2.31-2.68-3.72-4.17.35-1.31,1.37-2.34,2.67-2.71.33.17.69.26,1.04.26ZM40.7,30.46c-1.17.5-2.1,1.46-2.55,2.66-.39-.4-.78-.79-1.16-1.17.66-1.28,1.74-2.3,3.07-2.88.14.57.36,1.04.65,1.38ZM46.89,33.12c-.46-1.19-1.38-2.16-2.55-2.66.29-.35.51-.82.65-1.38,1.33.57,2.41,1.6,3.07,2.88-.38.37-.77.77-1.16,1.16ZM39.36,17.72c0-2.63,1.59-3.8,3.16-3.8s3.16,1.18,3.16,3.8-1.59,3.8-3.16,3.8-3.16-1.18-3.16-3.8ZM38.97,19.98c.71,1.61,2.16,2.38,3.55,2.38s2.84-.77,3.55-2.38c.2.47.32.98.32,1.52,0,1.51-.88,2.82-2.16,3.45-.48-.51-1.09-.77-1.7-.77s-1.22.25-1.7.77c-1.27-.63-2.16-1.93-2.16-3.45,0-.54.11-1.06.32-1.53Z"/>
  </g>
</svg>