<?xml version="1.0" encoding="UTF-8"?>
<svg id="ICONS" xmlns="http://www.w3.org/2000/svg" viewBox="0 0 85.04 85.04">
  <defs>
    <style>
      .cls-1 {
        fill: none;
      }

      .cls-2, .cls-3 {
        fill: #fff385;
      }

      .cls-3 {
        stroke: #231f20;
        stroke-miterlimit: 10;
        stroke-width: .75px;
      }

      .cls-4 {
        fill: #1d1d1b;
      }

      .cls-5 {
        fill: #ff7575;
      }

      .cls-6 {
        fill: #ff9ef0;
      }
    </style>
  </defs>
  <g>
    <path class="cls-1" d="M43.84,20.38c.4.36.65.88.65,1.45,0,.82-.51,1.53-1.22,1.82,1.15,1.36,2.63,3.96,2.96,6.87.18,1.61-.27,3.19-1.2,4.23-.68.76-1.57,1.18-2.5,1.18s-1.82-.42-2.5-1.18c-.93-1.04-1.38-2.63-1.2-4.23.32-2.91,1.81-5.5,2.96-6.87-.72-.3-1.22-1-1.22-1.82,0-.58.25-1.09.65-1.45-1.53-.55-2.63-1.99-2.63-3.71,0-.13.03-.25.04-.37-.56,2.18-2.53,3.81-4.88,3.81-2.79,0-5.05-2.27-5.05-5.05,0-1.07.33-2.09.94-2.94-.9.04-1.81.22-2.67.55-4.27,1.63-6.15,6.16-5.02,12.12,1.72,9.09,7.8,15.51,12.95,19.46,2.81.15,6.52,3.52,7.66,4.63,1.14-1.11,4.85-4.48,7.67-4.63,5.14-3.94,11.22-10.36,12.94-19.45,1.13-5.96-.75-10.49-5.02-12.12-.86-.33-1.77-.51-2.67-.55.61.85.94,1.87.94,2.94,0,2.79-2.27,5.05-5.05,5.05-2.36,0-4.33-1.63-4.88-3.82.01.13.04.25.04.38,0,1.71-1.1,3.16-2.63,3.71Z"/>
    <path class="cls-3" d="M32.88,44.9c.55-.51,1.24-.69,1.98-.65-5.14-3.95-11.23-10.36-12.95-19.46-1.13-5.96.75-10.49,5.02-12.12.86-.33,1.77-.51,2.67-.55-.61.85-.94,1.87-.94,2.94,0,2.79,2.27,5.05,5.05,5.05,2.36,0,4.32-1.63,4.88-3.81.02-.22.06-.44.11-.65.02-.2.06-.39.06-.59,0-1.7-.68-3.23-1.97-4.43-1.85-1.71-4.89-2.68-7.76-2.47-1.2.09-2.39.36-3.53.79-4.8,1.83-9.3,7.15-7.52,16.58,1.94,10.26,8.51,17.36,14.16,21.73-.01-.18-.03-.36-.02-.53.03-.78.28-1.4.74-1.83Z"/>
    <path class="cls-2" d="M42.52,69.03c-1.82,0-3.49-.68-4.76-1.8-.43.52-1.27,1.71-1.5,3.2h12.52c-.23-1.49-1.07-2.67-1.5-3.2-1.28,1.12-2.94,1.8-4.76,1.8Z"/>
    <path class="cls-2" d="M49.11,71.27h-13.18c-.49.4-2.6,2.24-3.1,4.81h19.37c-.5-2.58-2.6-4.41-3.1-4.81Z"/>
    <path class="cls-2" d="M42.99,55.4c-.16-.01-.31-.02-.47-.02s-.31.01-.47.02c-1.07.84-3.03,2.27-4.99,3.04-.6.98-.95,2.12-.95,3.34,0,3.53,2.88,6.41,6.41,6.41s6.41-2.88,6.41-6.41c0-1.23-.35-2.37-.95-3.34-1.95-.78-3.92-2.2-4.99-3.04ZM42.52,66.25c-2.56,0-4.65-2.09-4.65-4.65,0-.81.22-1.59.64-2.33.15-.26.57-.26.72,0,.7,1.2,1.92,1.91,3.29,1.91s2.59-.71,3.29-1.91c.07-.13.21-.21.36-.21s.29.08.36.21c.43.73.64,1.52.64,2.33,0,2.56-2.09,4.65-4.65,4.65Z"/>
    <path class="cls-3" d="M59.52,8.95c-1.14-.44-2.33-.7-3.53-.79-2.87-.21-5.91.76-7.76,2.47-1.29,1.2-1.97,2.73-1.97,4.43,0,.21.04.4.06.6.05.21.09.42.11.63.55,2.19,2.52,3.82,4.88,3.82,2.79,0,5.05-2.27,5.05-5.05,0-1.07-.33-2.09-.94-2.94.9.04,1.81.22,2.67.55,4.27,1.63,6.15,6.16,5.02,12.12-1.72,9.09-7.8,15.51-12.94,19.45.74-.04,1.42.14,1.97.65.46.43.71,1.04.74,1.83,0,.17,0,.35-.02.53,5.65-4.37,12.22-11.47,14.16-21.73,1.78-9.43-2.72-14.75-7.52-16.58Z"/>
    <path class="cls-2" d="M46.1,60.31c-.88,1.07-2.19,1.71-3.58,1.71s-2.7-.64-3.58-1.71c-.16.42-.24.85-.24,1.29,0,2.1,1.71,3.82,3.82,3.82s3.82-1.71,3.82-3.82c0-.44-.08-.87-.24-1.29Z"/>
    <circle class="cls-6" cx="42.52" cy="21.83" r="1.14"/>
    <path class="cls-2" d="M41.19,55.01c-1.06-.5-1.8-1.58-1.8-2.83,0-1.42.95-2.61,2.25-2.99-1.72-1.61-4.89-4.11-6.96-4.11-.48,0-.89.13-1.22.44-.3.27-.45.69-.47,1.24-.06,1.58,1.01,3.69,2.06,4.81.08.08.12.19.11.3,0,.11-.05.22-.14.29-1.13,1.02-2.08,3.13-2.04,4.5.02.52.17.89.45,1.11,1.67,1.31,5.53-1.07,7.77-2.77Z"/>
    <path class="cls-2" d="M51.62,57.77c.28-.22.43-.59.45-1.11.05-1.37-.91-3.47-2.04-4.5-.08-.08-.13-.18-.14-.29,0-.11.04-.22.11-.3,1.06-1.12,2.12-3.23,2.06-4.81-.02-.55-.18-.97-.47-1.24-1.77-1.64-6.07,1.7-8.19,3.67,1.3.38,2.25,1.57,2.25,2.99,0,1.25-.74,2.32-1.8,2.83,2.24,1.7,6.11,4.08,7.77,2.77Z"/>
    <circle class="cls-5" cx="42.52" cy="52.18" r="2.3"/>
    <path class="cls-6" d="M39.64,30.61c-.15,1.38.22,2.72,1,3.59,1.06,1.18,2.71,1.18,3.76,0,.78-.87,1.15-2.21,1-3.59-.32-2.83-1.8-5.33-2.88-6.55-1.08,1.22-2.56,3.72-2.88,6.55Z"/>
    <path class="cls-6" d="M42.52,19.79c1.72,0,3.12-1.4,3.12-3.12s-1.4-3.12-3.12-3.12-3.12,1.4-3.12,3.12,1.4,3.12,3.12,3.12Z"/>
  </g>
  <g>
    <path class="cls-4" d="M47.17,61.6c0-.81-.22-1.59-.64-2.33-.07-.13-.21-.21-.36-.21s-.29.08-.36.21c-.7,1.2-1.92,1.91-3.29,1.91s-2.59-.71-3.29-1.91c-.15-.26-.57-.26-.72,0-.43.73-.64,1.52-.64,2.33,0,2.56,2.09,4.65,4.65,4.65s4.65-2.09,4.65-4.65ZM42.52,65.42c-2.1,0-3.82-1.71-3.82-3.82,0-.44.08-.87.24-1.29.88,1.07,2.19,1.71,3.58,1.71s2.7-.64,3.58-1.71c.16.42.24.85.24,1.29,0,2.1-1.71,3.82-3.82,3.82Z"/>
    <path class="cls-4" d="M52.16,44.9c-.55-.51-1.23-.69-1.97-.65-2.82.15-6.52,3.52-7.67,4.63-1.14-1.11-4.84-4.47-7.66-4.63-.74-.04-1.43.14-1.98.65-.46.43-.71,1.04-.74,1.83,0,.17,0,.35.02.53.13,1.61,1.04,3.42,2,4.57-1.07,1.15-2.07,3.23-2.02,4.85.03.76.29,1.36.77,1.74.5.39,1.1.56,1.76.56.4,0,.82-.06,1.25-.17-.41.91-.64,1.91-.64,2.97,0,1.87.72,3.57,1.89,4.86-.51.59-1.57,2.07-1.76,3.98-.62.5-3.11,2.67-3.47,5.82-.01.12.02.24.1.32.08.09.19.14.31.14h20.35c.12,0,.23-.05.31-.14.08-.09.12-.21.1-.32-.36-3.15-2.85-5.33-3.47-5.82-.19-1.91-1.25-3.38-1.76-3.98,1.17-1.29,1.89-2.99,1.89-4.86,0-1.06-.23-2.06-.64-2.97.43.11.85.17,1.25.17.66,0,1.26-.16,1.76-.56.48-.37.74-.98.77-1.74.06-1.62-.95-3.71-2.02-4.85.96-1.15,1.87-2.96,2-4.57.01-.18.03-.36.02-.53-.03-.78-.28-1.4-.74-1.83ZM32.83,76.07c.5-2.57,2.61-4.41,3.1-4.81h13.18c.49.4,2.59,2.23,3.1,4.81h-19.37ZM36.26,70.43c.23-1.49,1.07-2.67,1.5-3.2,1.27,1.12,2.94,1.8,4.76,1.8s3.49-.68,4.76-1.8c.43.52,1.27,1.71,1.5,3.2h-12.52ZM42.52,68.2c-3.53,0-6.41-2.88-6.41-6.41,0-1.23.35-2.37.95-3.34,1.95-.78,3.92-2.2,4.99-3.04.16-.01.31-.02.47-.02s.31.01.47.02c1.07.84,3.03,2.27,4.99,3.04.6.98.95,2.12.95,3.34,0,3.53-2.88,6.41-6.41,6.41ZM35.01,52.16c.08-.08.13-.18.14-.29,0-.11-.04-.22-.11-.3-1.06-1.12-2.12-3.23-2.06-4.81.02-.55.18-.97.47-1.24.33-.3.75-.44,1.22-.44,2.07,0,5.24,2.5,6.96,4.11-1.29.39-2.25,1.57-2.25,2.99,0,1.25.74,2.32,1.8,2.83-2.24,1.7-6.1,4.08-7.77,2.77-.28-.22-.43-.59-.45-1.11-.05-1.37.91-3.47,2.04-4.5ZM44.82,52.18c0,1.27-1.03,2.3-2.3,2.3s-2.3-1.03-2.3-2.3,1.03-2.3,2.3-2.3,2.3,1.03,2.3,2.3ZM43.85,55.01c1.06-.5,1.8-1.58,1.8-2.83,0-1.42-.95-2.61-2.25-2.99,2.12-1.97,6.42-5.31,8.19-3.67.29.27.45.69.47,1.24.06,1.58-1.01,3.69-2.06,4.81-.08.08-.12.19-.11.3,0,.11.05.22.14.29,1.13,1.02,2.09,3.13,2.04,4.5-.02.52-.17.89-.45,1.11-1.66,1.31-5.53-1.07-7.77-2.77Z"/>
    <path class="cls-4" d="M38.57,16.67c0,1.71,1.1,3.16,2.63,3.71-.4.36-.65.88-.65,1.45,0,.82.51,1.53,1.22,1.82-1.15,1.36-2.63,3.96-2.96,6.87-.18,1.61.27,3.19,1.2,4.23.68.76,1.57,1.18,2.5,1.18s1.82-.42,2.5-1.18c.93-1.04,1.38-2.63,1.2-4.23-.32-2.91-1.81-5.5-2.96-6.87.72-.3,1.22-1,1.22-1.82,0-.58-.25-1.09-.65-1.45,1.53-.55,2.63-1.99,2.63-3.71,0-.13-.03-.25-.04-.38-.02-.22-.05-.43-.11-.63-.45-1.69-1.98-2.94-3.8-2.94s-3.35,1.25-3.8,2.93c-.06.21-.09.43-.11.65-.01.12-.04.24-.04.37ZM42.52,13.55c1.72,0,3.12,1.4,3.12,3.12s-1.4,3.12-3.12,3.12-3.12-1.4-3.12-3.12,1.4-3.12,3.12-3.12ZM43.66,21.83c0,.63-.51,1.14-1.14,1.14s-1.14-.51-1.14-1.14.51-1.14,1.14-1.14,1.14.51,1.14,1.14ZM44.4,34.2c-1.06,1.18-2.71,1.18-3.76,0-.78-.87-1.15-2.21-1-3.59.32-2.83,1.8-5.33,2.88-6.55,1.08,1.22,2.56,3.72,2.88,6.55.15,1.38-.22,2.72-1,3.59Z"/>
  </g>
</svg>