<?xml version="1.0" encoding="UTF-8"?>
<svg id="ICONS" xmlns="http://www.w3.org/2000/svg" viewBox="0 0 85.04 85.04">
  <defs>
    <style>
      .cls-1 {
        fill: #fff385;
      }

      .cls-2 {
        fill: #1d1d1b;
      }

      .cls-3 {
        fill: #ff9ef0;
      }

      .cls-4 {
        fill: #fff;
        stroke: #231f20;
        stroke-miterlimit: 10;
        stroke-width: .75px;
      }
    </style>
  </defs>
  <path class="cls-4" d="M22.44,39.77c-.32-5.31,1.69-9.43,5.37-11.03.29-.13.58-.21.87-.31-2.81-1.81-14.54-9.1-17.02-6.39-1.74,1.91,2.71,10.69,4.48,13.98-1.45-.38-3.89-.85-4.79.08-.16.17-.34.46-.31.95.14,2.38,5.59,7.58,8.93,10.42-.96.31-2.3.89-2.46,1.77-.07.38.11.85.52,1.4,1.57,2.08,6.48,5.26,12.51,5.93-4.98-4.91-7.78-11.24-8.11-16.8Z"/>
  <path class="cls-4" d="M74,37.05c.03-.48-.15-.78-.31-.95-.89-.93-3.34-.46-4.79-.08,1.77-3.29,6.23-12.07,4.48-13.98-2.48-2.71-14.21,4.58-17.02,6.39.29.1.58.18.87.31,3.68,1.59,5.69,5.72,5.37,11.03-.33,5.56-3.13,11.89-8.11,16.8,6.03-.67,10.93-3.85,12.51-5.93.41-.55.59-1.02.52-1.4-.15-.88-1.5-1.46-2.46-1.77,3.34-2.84,8.79-8.04,8.93-10.42Z"/>
  <path class="cls-1" d="M35.4,59.4c-3.74-3.3-5.84-7.79-6.07-11.71-.21-3.51,1.13-6.25,3.58-7.31,4.51-1.95,8.47,1.87,9.61,3.13,1.14-1.26,5.1-5.09,9.62-3.13,2.45,1.06,3.79,3.79,3.58,7.31-.23,3.91-2.33,8.4-6.07,11.7,7.5-4.91,11.72-12.89,12.13-19.68.3-5.02-1.48-8.74-4.87-10.21-7.45-3.23-13.98,5.01-14.05,5.09-.16.2-.5.2-.66,0-.06-.07-4.63-5.84-10.49-5.84-1.15,0-2.34.22-3.56.75-3.4,1.47-5.17,5.19-4.87,10.21.4,6.8,4.63,14.77,12.13,19.68Z"/>
  <path class="cls-3" d="M55.71,47.7c.21-3.51-1.13-6.25-3.58-7.31-4.52-1.96-8.47,1.87-9.62,3.13-1.14-1.26-5.1-5.09-9.61-3.13-2.45,1.06-3.79,3.79-3.58,7.31.23,3.91,2.33,8.41,6.07,11.71,2.12,1.39,4.49,2.54,7.12,3.34,2.64-.8,5-1.96,7.13-3.34,3.73-3.3,5.84-7.79,6.07-11.7ZM36.26,49.96c0-.95.22-1.87.65-2.73.07-.14.22-.23.37-.23s.3.09.37.23c.92,1.85,2.79,3,4.87,3s3.94-1.15,4.87-3c.07-.14.22-.23.37-.23s.3.09.37.23c.43.86.65,1.78.65,2.73,0,3.42-2.81,6.19-6.26,6.19s-6.26-2.78-6.26-6.19Z"/>
  <path class="cls-1" d="M48.78,49.96c0-.95-.22-1.87-.65-2.73-.07-.14-.22-.23-.37-.23s-.3.09-.37.23c-.92,1.85-2.79,3-4.87,3s-3.94-1.15-4.87-3c-.07-.14-.22-.23-.37-.23s-.3.09-.37.23c-.43.86-.65,1.78-.65,2.73,0,3.42,2.81,6.19,6.26,6.19s6.26-2.78,6.26-6.19Z"/>
  <path class="cls-2" d="M62.6,39.77c.32-5.31-1.69-9.43-5.37-11.03-.29-.13-.58-.21-.87-.31-6.69-2.21-12.43,3.66-13.84,5.27-1.41-1.61-7.16-7.47-13.84-5.27-.29.1-.58.18-.87.31-3.68,1.59-5.69,5.72-5.37,11.03.33,5.56,3.13,11.89,8.11,16.8,3.12,3.07,7.08,5.59,11.85,7.01.04.01.08.02.12.02s.08,0,.12-.02c4.77-1.42,8.74-3.94,11.85-7.01,4.98-4.91,7.78-11.24,8.11-16.8ZM23.27,39.72c-.3-5.02,1.48-8.74,4.87-10.21,1.22-.53,2.41-.75,3.56-.75,5.86,0,10.43,5.77,10.49,5.84.16.2.5.2.66,0,.07-.08,6.6-8.32,14.05-5.09,3.4,1.47,5.17,5.19,4.87,10.21-.4,6.79-4.63,14.77-12.13,19.68-2.12,1.39-4.49,2.55-7.13,3.34-2.63-.8-5-1.95-7.12-3.34-7.5-4.91-11.72-12.89-12.13-19.68Z"/>
</svg>