<?xml version="1.0" encoding="UTF-8"?>
<svg id="ICONS" xmlns="http://www.w3.org/2000/svg" viewBox="0 0 85.04 85.04">
  <defs>
    <style>
      .cls-1 {
        fill: #fff385;
      }

      .cls-2 {
        fill: #1d1d1b;
      }

      .cls-3, .cls-4 {
        fill: #fff;
      }

      .cls-5 {
        fill: #ff9ef0;
      }

      .cls-4 {
        stroke: #231f20;
        stroke-miterlimit: 10;
        stroke-width: .5px;
      }
    </style>
  </defs>
  <g>
    <path class="cls-4" d="M72.34,37.08c1.77-1.64,4.17-4.15,3.79-5.31-.08-.26-.32-.58-.95-.63-2.33-.2-5.14.58-7.81,1.65.38-1.31.62-2.7.28-3.5-.15-.34-.4-.59-.72-.7-1.11-.39-3.08.95-4.54,2.15.22,1.19.29,2.48.21,3.84-.16,2.62-.87,5.4-2.09,8.13.93.59,1.56,1.63,1.56,2.81,0,1.84-1.49,3.33-3.33,3.33-.08,0-.16-.02-.24-.02.27.48.43,1.02.43,1.61,0,1.84-1.5,3.33-3.33,3.33-.33,0-.65-.06-.96-.16.09.3.16.62.16.96,0,1.61-1.15,2.96-2.67,3.26,2.1,2.93,4.87,4.35,6.13,4.47.06,0,.11,0,.16,0,.5,0,.69-.24.76-.4.29-.65-.14-2.03-.54-3.06,2.37.93,5.78,1.08,6.7.36.28-.21.38-.51.28-.82-.89-2.88-2.78-4.73-4.75-5.91,5.87-.2,11.35-3.38,12.17-4.92.33-.62.08-1.05-.27-1.25-1-.58-4.44-.62-7.78-.5,5.89-1.99,9.28-5.77,9.99-7.39.07-.16.29-.66.01-.99-.42-.48-1.61-.48-2.66-.36Z"/>
    <path class="cls-4" d="M30.24,54.57c0-.33.06-.65.16-.96-.3.09-.62.16-.96.16-1.84,0-3.33-1.49-3.33-3.33,0-.59.17-1.13.43-1.61-.08,0-.16.02-.24.02-1.84,0-3.33-1.49-3.33-3.33,0-1.18.62-2.22,1.56-2.81-1.22-2.73-1.93-5.51-2.09-8.13-.08-1.37,0-2.66.21-3.84-1.46-1.19-3.43-2.53-4.54-2.15-.32.11-.57.36-.72.7-.34.8-.1,2.18.28,3.5-2.67-1.08-5.48-1.85-7.81-1.65-.63.05-.87.37-.95.63-.38,1.16,2.02,3.66,3.79,5.31-1.05-.12-2.24-.12-2.66.36-.28.32-.06.82,0,.99.71,1.62,4.09,5.4,9.99,7.39-3.35-.12-6.78-.08-7.78.5-.35.2-.6.63-.27,1.25.82,1.54,6.3,4.72,12.17,4.92-1.97,1.18-3.86,3.03-4.75,5.91-.09.31,0,.61.28.82.92.72,4.33.57,6.7-.36-.4,1.02-.83,2.41-.55,3.06.07.15.26.4.76.4.05,0,.1,0,.16,0,1.26-.12,4.03-1.54,6.14-4.47-1.52-.31-2.67-1.65-2.67-3.26Z"/>
    <path class="cls-5" d="M25.28,42.36c.32-.11.66-.18,1.02-.18,1.84,0,3.33,1.49,3.33,3.33,0,.59-.17,1.13-.43,1.61.08,0,.16-.02.24-.02,1.84,0,3.33,1.49,3.33,3.33,0,.33-.06.65-.16.96.3-.09.62-.16.96-.16,1.09,0,2.06.54,2.67,1.35.1-.59.28-1.17.55-1.73.14-.29.61-.29.75,0,.94,1.92,2.85,3.11,4.98,3.11.18,0,.37-.02.55-.04.13-.01.27-.03.4-.05.11-.02.22-.04.33-.07.14-.03.28-.07.42-.11.09-.03.17-.06.26-.09.15-.06.3-.11.44-.18.07-.03.13-.07.19-.1.16-.08.31-.17.46-.26.05-.04.1-.08.16-.11.15-.1.29-.21.43-.33.06-.05.11-.11.17-.16.12-.11.24-.23.35-.35.09-.1.16-.21.24-.31.07-.09.15-.18.21-.27.14-.21.27-.43.39-.66,0,0,0,0,0,0,.07-.14.21-.23.37-.23s.3.09.37.23c0,0,0,0,0,0,.27.55.45,1.13.55,1.73.61-.82,1.57-1.35,2.67-1.35.33,0,.65.06.96.16-.09-.3-.16-.62-.16-.96,0-1.84,1.5-3.33,3.33-3.33.08,0,.16.02.24.02-.27-.48-.43-1.02-.43-1.61,0-1.84,1.5-3.33,3.33-3.33.36,0,.7.07,1.02.18,1.17-2.63,1.86-5.31,2.01-7.83.3-5.02-1.48-8.74-4.87-10.21-7.45-3.22-13.98,5.01-14.05,5.09-.16.2-.5.2-.66,0-.06-.07-4.63-5.84-10.49-5.84-1.15,0-2.34.22-3.56.75-3.39,1.47-5.17,5.19-4.87,10.21.15,2.52.84,5.2,2.01,7.83Z"/>
    <path class="cls-3" d="M26.3,48.02c1.38,0,2.5-1.12,2.5-2.5s-1.12-2.5-2.5-2.5-2.5,1.12-2.5,2.5,1.12,2.5,2.5,2.5Z"/>
    <circle class="cls-3" cx="29.44" cy="50.44" r="2.5"/>
    <circle class="cls-3" cx="33.57" cy="54.57" r="2.5"/>
    <path class="cls-3" d="M58.74,43.02c-1.38,0-2.5,1.12-2.5,2.5s1.12,2.5,2.5,2.5,2.5-1.12,2.5-2.5-1.12-2.5-2.5-2.5Z"/>
    <circle class="cls-3" cx="55.6" cy="50.44" r="2.5"/>
    <path class="cls-3" d="M53.97,54.57c0-1.38-1.12-2.5-2.5-2.5s-2.5,1.12-2.5,2.5,1.12,2.5,2.5,2.5,2.5-1.12,2.5-2.5Z"/>
    <path class="cls-1" d="M39.64,57.01c0-.99.46-1.87,1.19-2.43-1.46-.4-2.74-1.3-3.6-2.59-.17.54-.26,1.1-.26,1.68,0,2.2,1.3,4.1,3.16,4.99-.31-.48-.5-1.05-.5-1.65Z"/>
    <path class="cls-1" d="M47.66,55.76c.06-.14.09-.29.13-.43.06-.19.13-.38.17-.58.05-.25.07-.52.08-.79,0-.1.03-.19.03-.29,0-.57-.09-1.13-.26-1.67-.14.21-.29.4-.45.59-.14.16-.28.31-.43.45-.03.02-.05.05-.08.08-.16.15-.33.29-.5.42-.02.02-.04.03-.06.05-.17.12-.34.23-.52.34-.03.02-.07.04-.1.06-.17.09-.34.18-.51.25-.06.03-.11.05-.17.08-.15.06-.31.12-.47.17-.08.03-.17.06-.25.08-.14.04-.28.07-.43.1-.11.02-.22.05-.33.06-.13.02-.26.03-.4.05-.07,0-.13.02-.2.02-.12,0-.25.01-.37.01,0,0,0,0,0,0-.01,0-.02,0-.04,0-.06,0-.12,0-.17,0-1.01.12-1.84,1.07-1.84,2.21s.94,2.16,2.1,2.21c.23,0,.45-.04.68-.07.19-.03.38-.05.57-.1.15-.04.3-.09.45-.14.19-.06.38-.13.56-.21.13-.06.25-.14.38-.21.18-.1.36-.2.53-.32.11-.08.2-.17.31-.25.17-.14.33-.27.48-.43.09-.09.16-.19.24-.29.14-.17.28-.34.4-.52.07-.11.12-.23.18-.34.11-.19.22-.38.3-.58Z"/>
  </g>
  <path class="cls-2" d="M54.8,54.57c0-.33-.06-.65-.16-.96.3.09.62.16.96.16,1.84,0,3.33-1.49,3.33-3.33,0-.59-.17-1.13-.43-1.61.08,0,.16.02.24.02,1.84,0,3.33-1.49,3.33-3.33,0-1.18-.62-2.22-1.56-2.81,1.22-2.73,1.93-5.51,2.09-8.13.08-1.37,0-2.66-.21-3.84-.62-3.42-2.43-6-5.16-7.18-7.06-3.06-13.24,3.28-14.71,4.96-1.47-1.68-7.66-8.01-14.71-4.96-2.73,1.18-4.54,3.76-5.16,7.18-.22,1.19-.29,2.47-.21,3.84.16,2.62.87,5.4,2.09,8.13-.93.59-1.56,1.63-1.56,2.81,0,1.84,1.49,3.33,3.33,3.33.08,0,.16-.02.24-.02-.27.48-.43,1.02-.43,1.61,0,1.84,1.49,3.33,3.33,3.33.33,0,.65-.06.96-.16-.09.3-.16.62-.16.96,0,1.61,1.15,2.96,2.67,3.26.21.04.44.07.66.07,1.33,0,2.47-.79,3-1.92.93,2.38,3.24,4.07,5.95,4.07.03,0,.06,0,.1,0,.02,0,.03,0,.05,0,.12,0,.23,0,.32-.02.02,0,.04,0,.07,0,.13-.01.25-.03.38-.05.08-.01.17-.02.25-.04.12-.02.23-.05.35-.08.09-.02.17-.04.26-.07.11-.03.22-.07.33-.11.08-.03.17-.06.25-.09.11-.04.22-.09.32-.14.07-.03.15-.07.22-.11.11-.06.22-.12.32-.18.06-.04.13-.07.19-.11.11-.07.22-.14.33-.22.05-.04.1-.07.15-.11.11-.09.22-.18.33-.27.04-.03.07-.07.11-.1.11-.1.22-.21.33-.32.03-.03.05-.06.08-.09.11-.12.21-.24.31-.37.02-.02.04-.05.05-.07.1-.13.2-.27.29-.42.01-.02.02-.04.04-.06.09-.15.18-.3.26-.46,0-.02.02-.04.03-.05.08-.16.16-.32.22-.49,0-.02.01-.04.02-.06,0,0,0,0,0,0,.53,1.13,1.67,1.92,3,1.92.23,0,.45-.02.67-.07,1.52-.31,2.67-1.65,2.67-3.26ZM48.98,54.57c0-1.38,1.12-2.5,2.5-2.5s2.5,1.12,2.5,2.5-1.12,2.5-2.5,2.5-2.5-1.12-2.5-2.5ZM36.97,53.67c0-.57.09-1.13.26-1.68.86,1.28,2.14,2.19,3.6,2.59-.73.56-1.19,1.44-1.19,2.43,0,.61.18,1.18.5,1.65-1.86-.9-3.16-2.79-3.16-4.99ZM26.94,50.44c0-1.38,1.12-2.5,2.5-2.5s2.5,1.12,2.5,2.5-1.12,2.5-2.5,2.5-2.5-1.12-2.5-2.5ZM23.8,45.52c0-1.38,1.12-2.5,2.5-2.5s2.5,1.12,2.5,2.5-1.12,2.5-2.5,2.5-2.5-1.12-2.5-2.5ZM23.27,34.53c-.3-5.02,1.48-8.74,4.87-10.21,1.22-.53,2.41-.75,3.56-.75,5.86,0,10.43,5.77,10.49,5.84.16.2.5.2.66,0,.07-.08,6.6-8.32,14.05-5.09,3.4,1.47,5.17,5.19,4.87,10.21-.15,2.52-.84,5.2-2.01,7.83-.32-.11-.66-.18-1.02-.18-1.84,0-3.33,1.49-3.33,3.33,0,.59.17,1.13.43,1.61-.08,0-.16-.02-.24-.02-1.84,0-3.33,1.49-3.33,3.33,0,.33.06.65.16.96-.3-.09-.62-.16-.96-.16-1.09,0-2.06.54-2.67,1.35-.1-.59-.28-1.17-.55-1.73,0,0,0,0,0,0-.07-.14-.21-.23-.37-.23s-.3.09-.37.23c0,0,0,0,0,0-.11.23-.24.45-.39.66-.06.1-.14.18-.21.27-.08.1-.16.21-.24.31-.11.12-.23.24-.35.35-.06.05-.11.11-.17.16-.14.12-.28.22-.43.33-.05.04-.1.08-.16.11-.15.1-.3.18-.46.26-.06.03-.13.07-.19.1-.14.07-.29.13-.44.18-.09.03-.17.07-.26.09-.14.04-.28.08-.42.11-.11.03-.22.05-.33.07-.13.02-.26.04-.4.05-.18.02-.36.04-.55.04-2.13,0-4.04-1.19-4.98-3.11-.14-.29-.61-.29-.75,0-.27.56-.45,1.13-.55,1.73-.61-.82-1.57-1.35-2.67-1.35-.33,0-.65.06-.96.16.09-.3.16-.62.16-.96,0-1.84-1.5-3.33-3.33-3.33-.08,0-.16.02-.24.02.27-.48.43-1.02.43-1.61,0-1.84-1.49-3.33-3.33-3.33-.36,0-.7.07-1.02.18-1.17-2.63-1.86-5.31-2.01-7.83ZM58.74,48.02c-1.38,0-2.5-1.12-2.5-2.5s1.12-2.5,2.5-2.5,2.5,1.12,2.5,2.5-1.12,2.5-2.5,2.5ZM55.6,52.93c-1.38,0-2.5-1.12-2.5-2.5s1.12-2.5,2.5-2.5,2.5,1.12,2.5,2.5-1.12,2.5-2.5,2.5ZM47.17,56.68c-.12.19-.26.35-.4.52-.08.1-.15.2-.24.29-.15.16-.32.29-.48.43-.1.08-.2.18-.31.25-.17.12-.35.22-.53.32-.12.07-.25.14-.38.21-.18.08-.37.15-.56.21-.15.05-.3.1-.45.14-.18.04-.38.07-.57.1-.22.03-.45.07-.68.07-1.16-.05-2.1-1.03-2.1-2.21s.83-2.08,1.84-2.21c.05,0,.11,0,.17,0,.01,0,.02,0,.04,0,0,0,0,0,0,0,.12,0,.25,0,.37-.01.07,0,.13-.02.2-.02.13-.01.27-.03.4-.05.11-.02.22-.04.33-.06.14-.03.29-.06.43-.1.09-.02.17-.05.25-.08.16-.05.32-.11.47-.17.06-.02.11-.05.17-.08.17-.08.34-.16.51-.25.03-.02.07-.04.1-.06.18-.11.36-.22.52-.34.02-.02.04-.03.06-.05.17-.13.34-.27.5-.42.03-.02.05-.05.08-.08.15-.14.3-.29.43-.45.16-.19.31-.38.45-.59.17.54.26,1.1.26,1.67,0,.1-.02.19-.03.29-.01.27-.03.53-.08.79-.04.2-.11.39-.17.58-.05.14-.08.29-.13.43-.08.2-.19.39-.3.58-.06.11-.11.23-.18.34ZM33.57,52.07c1.38,0,2.5,1.12,2.5,2.5s-1.12,2.5-2.5,2.5-2.5-1.12-2.5-2.5,1.12-2.5,2.5-2.5Z"/>
</svg>