<?xml version="1.0" encoding="UTF-8"?>
<svg id="ICONS" xmlns="http://www.w3.org/2000/svg" viewBox="0 0 85.04 85.04">
  <defs>
    <style>
      .cls-1 {
        fill: #fff385;
      }

      .cls-2, .cls-3 {
        fill: #9e80ff;
      }

      .cls-4 {
        fill: #1d1d1b;
      }

      .cls-5 {
        fill: #fff;
      }

      .cls-3 {
        stroke: #231f20;
        stroke-miterlimit: 10;
        stroke-width: .75px;
      }

      .cls-6 {
        fill: #ff7575;
      }
    </style>
  </defs>
  <path class="cls-2" d="M39.85,15.01c.51-.29,1.06-.55,1.63-.8-1.88-1.34-7.81-5.43-11.19-6.29,1.33,1.57,4.02,5.16,5.63,10.12,1.24-1.28,2.61-2.27,3.92-3.03Z"/>
  <path class="cls-6" d="M32.47,23.55c.82-2.26,2.06-4.07,3.46-5.51-1.61-4.96-4.3-8.55-5.63-10.12-.4-.1-.77-.17-1.09-.17h0s-.1,0-.18.13c-.96,1.51.94,9.93,3.45,15.68Z"/>
  <path class="cls-2" d="M59.14,15.01c1.31.76,2.68,1.75,3.92,3.03,1.61-4.96,4.3-8.55,5.63-10.12-3.37.86-9.31,4.95-11.19,6.29.57.24,1.12.5,1.63.8Z"/>
  <path class="cls-6" d="M66.51,23.55c2.51-5.74,4.4-14.17,3.45-15.68-.08-.13-.14-.13-.18-.13h0c-.32,0-.69.07-1.09.17-1.33,1.57-4.02,5.16-5.63,10.12,1.4,1.44,2.64,3.25,3.46,5.51Z"/>
  <path class="cls-3" d="M66.79,65.68c1.47-2.43,3.32-6.29,3.31-10.25-.01-8.55-8.69-10.77-10.28-11.1,2,3.58,5.45,12.36.26,24.38.79.66,3.09,2.77,3.26,4.99.04.54-.06,1.04-.27,1.5h.78c1.65-.03,3.12-.05,4.3-.31-.02,0-.04.01-.06.01-.01,0-.02,0-.04,0-.23-.02-.4-.22-.38-.45,0-.02.15-1.92-1.22-2.98-.18-.14-.21-.4-.07-.59.14-.18.4-.21.59-.07,1.73,1.34,1.55,3.62,1.54,3.71-.01.15-.11.27-.24.34,1.07-.25,1.9-.71,2.37-1.58,1.71-3.1-2.61-6.65-3.85-7.59Z"/>
  <path class="cls-3" d="M35.65,73.68c.17-2.22,2.47-4.33,3.26-4.99-3.55-8.21-3.02-14.83-1.93-18.96.63-2.39,1.48-4.2,2.17-5.42-1.44.3-10.25,2.49-10.26,11.11,0,.66.06,1.3.15,1.95.04.28.08.56.13.84-2.74,1-6.17.75-7.9-2.88-.79-1.66-.83-3.82-.1-6.43.62-2.24,1.71-4.36,2.76-6.4.4-.77.79-1.54,1.16-2.32,2.21-4.63,3.75-9.32.06-12.29-2.13-1.71-5.31-1.85-7.57-.32-.95.64-2.73,2.56-2.73,5.28-.09,1.84.85,2.83,1.76,2.98.91.15,1.71-.49,2.04-1.63.67-2.33,1.68-2.94,2.57-2.94.21,0,.41.03.6.09.51.15.88.44,1.13.88.66,1.21.09,3.18-.3,4.49-.07.24-.13.45-.17.62-.5,1.99-1.17,3.95-1.82,5.85-.38,1.11-.75,2.22-1.1,3.34-.88,2.82-1.19,4.97-1.02,6.97.24,2.84,1.67,5.39,3.71,6.64,2.72,1.66,5.75.94,7.52.25.09.26.17.53.26.79.64,1.74,1.46,3.3,2.19,4.5-1.25.94-5.57,4.5-3.85,7.59.48.87,1.31,1.32,2.38,1.58-.13-.06-.23-.18-.24-.34,0-.1-.19-2.37,1.54-3.72.18-.14.44-.11.59.07.14.18.11.44-.07.59-1.37,1.06-1.22,2.96-1.22,2.98.02.23-.15.43-.38.45-.01,0-.02,0-.04,0-.02,0-.04,0-.06-.01,1.18.26,2.65.28,4.3.3h.78c-.21-.46-.3-.96-.26-1.49Z"/>
  <path class="cls-2" d="M62.5,73.75c-.17-2.24-3.16-4.57-3.19-4.6-.15-.12-.21-.32-.13-.5,6.28-14.21.15-23.77-.98-25.34-2.49.87-5.41,1.34-8.71,1.34s-6.23-.47-8.71-1.34c-1.13,1.57-7.26,11.14-.98,25.34.08.18.03.38-.13.5-.03.02-3.02,2.35-3.19,4.6-.05.7.18,1.3.7,1.84.41.43,1.09.76,1.94,1.01.23-.8.87-2.5,2.45-3.56.19-.13.45-.08.58.11.13.19.08.45-.11.58-1.32.89-1.89,2.37-2.1,3.07,2.46.52,5.97.54,9.14.46v-8.52c0-3.6-2.7-3.84-2.81-3.85-.23-.02-.4-.22-.39-.45.02-.23.22-.42.44-.39.03,0,2.24.19,3.17,2.41.94-2.23,3.15-2.41,3.17-2.41.22-.03.43.16.44.39.02.23-.16.43-.39.45-.12,0-2.81.25-2.81,3.85v8.52c3.18.08,6.68.06,9.14-.46-.21-.7-.78-2.18-2.1-3.07-.19-.13-.24-.39-.11-.58.13-.19.39-.24.58-.11,1.58,1.07,2.22,2.77,2.45,3.56.85-.25,1.52-.57,1.94-1.01.52-.54.75-1.15.7-1.84Z"/>
  <path class="cls-2" d="M49.49,43.81c6.99,0,12.21-2.13,14.97-5.89-1.02-.43-1.92-.44-1.98-.44-.83.7-1.8,1.11-2.85,1.11-1.47,0-2.81-.82-3.8-2.13,0,0-.02,0-.02-.01-.01-.02-.02-.04-.04-.06-.23-.31-.44-.66-.63-1.03-.03-.06-.06-.11-.09-.17-.18-.37-.33-.77-.47-1.18-.02-.07-.04-.13-.06-.2-.09-.31-.17-.63-.23-.96,0,0,0,0,0-.01,0-.04-.01-.09-.02-.13-.01-.08-.03-.16-.04-.24,0-.03-.01-.06-.01-.09-.05-.33-.07-.66-.09-1-.01-.18-.02-.36-.02-.52,0-.28.01-.55.03-.82,0-.1.02-.2.03-.31.02-.16.03-.33.06-.49.02-.13.05-.26.07-.39.02-.13.05-.25.08-.37.03-.15.07-.29.12-.44.03-.09.05-.19.08-.28.05-.16.11-.32.16-.47.03-.07.05-.13.08-.2.07-.17.14-.33.21-.49.02-.04.04-.09.07-.13.09-.17.17-.34.27-.5.01-.02.02-.04.03-.05.22-.36.45-.71.72-1.01,0,0,.01-.01.02-.02l.37-.37s.04-.04.06-.06l.04-.04s.02-.01.03-.02c.87-.79,1.9-1.26,3.01-1.26.14,0,.29.01.44.03.11.01.22.03.33.05.01,0,.02,0,.03,0,0,0,0,0,0,0,2.67.55,4.72,3.76,4.72,7.64,0,1.26-.22,2.44-.6,3.49.43-.09,1-.16,1.65-.13.15-.56.27-1.13.34-1.73,1.09-9.48-3.66-14.35-7.84-16.75-2.77-1.59-6.82-2.45-9.23-2.45s-6.46.86-9.23,2.45c-4.18,2.41-8.93,7.27-7.84,16.75.07.6.19,1.17.34,1.73.68-.04,1.28.04,1.72.13-.38-1.05-.6-2.23-.6-3.49,0-3.88,2.05-7.09,4.72-7.64,0,0,0,0,0,0,.01,0,.02,0,.03,0,.11-.02.22-.04.33-.05.15-.02.3-.03.44-.03,1.11,0,2.15.46,3.01,1.26,0,0,.02,0,.03.02l.04.04s.04.04.06.06l.37.37s.01.01.02.02c.27.31.5.65.72,1.01.01.02.02.03.03.05.1.16.18.33.27.5.02.04.04.09.07.13.08.16.15.32.21.49.03.07.05.13.08.2.06.16.11.31.16.47.03.09.05.18.08.28.04.15.08.29.12.44.03.12.05.25.08.37.02.13.05.26.07.39.02.16.04.33.06.49.01.1.03.2.03.31.02.27.03.55.03.82,0,.16,0,.34-.02.52-.02.34-.04.68-.09,1,0,.03-.01.06-.01.09-.01.08-.03.16-.04.24,0,.04-.01.09-.02.13,0,0,0,0,0,.01-.06.33-.14.65-.23.96-.02.07-.04.13-.06.2-.13.41-.29.81-.47,1.18-.03.06-.06.11-.09.17-.19.37-.4.71-.63,1.03-.01.02-.02.04-.04.06,0,0-.02,0-.02.01-.99,1.32-2.33,2.13-3.8,2.13-1.04,0-2.01-.41-2.85-1.11-.07,0-.99.02-2.03.47,2.76,3.75,7.98,5.87,14.95,5.87ZM48.09,35.3c-.37-.41-.56-.88-.52-1.32.08-.96,1.03-1.38,1.93-1.38s1.85.43,1.93,1.38c.04.45-.15.92-.52,1.32-.25.27-.56.48-.87.61.2.52.65,1.4,1.35,1.4.45,0,1.02-.55,1.18-.75.15-.18.41-.2.59-.05s.2.41.05.59c-.09.11-.91,1.04-1.82,1.04s-1.54-.73-1.89-1.39c-.35.66-.95,1.39-1.89,1.39s-1.73-.94-1.82-1.04c-.15-.18-.13-.44.05-.59.18-.15.44-.13.59.05.17.19.74.75,1.18.75.71,0,1.15-.87,1.36-1.4-.3-.13-.62-.33-.87-.61ZM43.27,19.38c0-.95.22-1.87.65-2.73.14-.28.61-.28.75,0,.92,1.85,2.79,3,4.87,3s3.95-1.15,4.87-3c.07-.14.21-.23.37-.23s.3.09.37.23c.43.86.65,1.78.65,2.73,0,3.42-2.81,6.19-6.26,6.19s-6.26-2.78-6.26-6.19Z"/>
  <path class="cls-2" d="M34.05,37.24c.66-.31,1.3-.46,1.77-.53-.34-.41-.64-.87-.9-1.38-.12-.04-.89-.29-1.9-.27.27.77.61,1.5,1.04,2.18Z"/>
  <path class="cls-2" d="M65.98,35.06c-.98,0-1.71.23-1.83.27-.26.51-.56.97-.9,1.38.46.07,1.07.21,1.71.5.42-.67.76-1.39,1.02-2.16Z"/>
  <path class="cls-1" d="M49.53,25.58c3.45,0,6.26-2.78,6.26-6.19,0-.95-.22-1.87-.65-2.73-.07-.14-.22-.23-.37-.23s-.3.09-.37.23c-.92,1.85-2.79,3-4.87,3s-3.94-1.15-4.87-3c-.14-.28-.61-.28-.75,0-.43.86-.65,1.78-.65,2.73,0,3.42,2.81,6.19,6.26,6.19Z"/>
  <path class="cls-5" d="M39.43,35.39c.23-.23.4-.53.47-.89.09-.49,0-1.03-.24-1.52-.24-.49-.62-.88-1.07-1.1-.47-.24-.99-.25-1.41-.04-.06.03-.11.07-.17.11-.18-.47-.33-.94-.42-1.42-.36-1.9-.15-4.24.79-5.88-1.57,1.12-2.65,3.48-2.65,6.2,0,3.81,2.11,6.9,4.7,6.9.93,0,1.8-.41,2.54-1.1-.58-.07-1.2-.31-1.83-.73-.24-.16-.47-.34-.7-.53Z"/>
  <path class="cls-6" d="M43.91,35.36c.03-.06.06-.11.09-.17-.03.06-.06.11-.09.17Z"/>
  <path class="cls-6" d="M44.47,34.01c.02-.07.04-.13.06-.2-.02.07-.04.13-.06.2Z"/>
  <path class="cls-6" d="M44.83,32.47s.01-.06.01-.09c0,.03-.01.06-.01.09Z"/>
  <path class="cls-6" d="M43.29,36.38s-.04.05-.06.08c0,0,.02,0,.02-.01.01-.02.02-.04.04-.06Z"/>
  <path class="cls-6" d="M38.61,23.21s.03,0,.04,0c-.01,0-.02,0-.03,0,0,0,0,0,0,0Z"/>
  <path class="cls-6" d="M39.42,23.12c-.14,0-.29.01-.44.03.15-.02.29-.03.44-.03Z"/>
  <path class="cls-6" d="M36.59,30.53c.09.48.24.96.42,1.42.06-.04.11-.08.17-.11.42-.21.94-.19,1.41.04.44.22.82.61,1.07,1.1.24.49.33,1.03.24,1.52-.07.36-.23.66-.47.89.23.19.46.37.7.53.63.42,1.25.66,1.83.73.74-.7,1.34-1.7,1.71-2.88-1.71-.06-3.39-2.21-3.78-4.29-.21-1.12-.13-2.31.23-3.27.28-.76.72-1.31,1.24-1.64-.59-.4-1.25-.62-1.94-.62-.73,0-1.43.26-2.05.7-.94,1.64-1.15,3.98-.79,5.88Z"/>
  <path class="cls-5" d="M44.68,28.47c-.03-.15-.07-.29-.12-.44.04.14.08.29.12.44Z"/>
  <path class="cls-5" d="M44.49,27.76c-.05-.16-.11-.32-.16-.47.06.16.11.31.16.47Z"/>
  <path class="cls-5" d="M44.92,30.03c0-.1-.02-.2-.03-.31.01.1.03.2.03.31Z"/>
  <path class="cls-5" d="M44.83,29.23c-.02-.13-.05-.26-.07-.39.02.13.05.26.07.39Z"/>
  <path class="cls-5" d="M42.44,24.38s.05.04.07.06l-.04-.04s-.02-.01-.03-.02Z"/>
  <path class="cls-5" d="M44.79,32.71s-.02.1-.03.15c0,0,0,0,0-.01,0-.04.01-.09.02-.13Z"/>
  <path class="cls-5" d="M42.93,24.87l-.37-.37c.41.4.78.87,1.1,1.4-.22-.36-.45-.71-.72-1.01,0,0-.01-.01-.02-.02Z"/>
  <path class="cls-5" d="M44.94,31.37c.01-.18.02-.36.02-.52,0,.17-.01.35-.02.52Z"/>
  <path class="cls-5" d="M44.25,27.08c-.07-.17-.14-.33-.21-.49.08.16.15.32.21.49Z"/>
  <path class="cls-5" d="M43.97,26.46c-.09-.17-.17-.34-.27-.5.1.16.18.33.27.5Z"/>
  <path class="cls-5" d="M40.12,26.22c-.36.96-.44,2.16-.23,3.27.4,2.08,2.07,4.22,3.78,4.29.28-.89.45-1.88.45-2.92,0-2.79-1.13-5.19-2.76-6.28-.53.33-.96.88-1.24,1.64Z"/>
  <path class="cls-1" d="M49.49,35.21c.14,0,.5-.15.79-.47.12-.13.33-.4.31-.69-.05-.61-1.09-.62-1.1-.62s-1.05,0-1.1.62c-.02.29.18.56.31.69.3.32.65.47.79.47Z"/>
  <path class="cls-5" d="M64.33,30.86c0-2.73-1.08-5.08-2.65-6.2.94,1.64,1.15,3.98.79,5.88-.09.48-.24.96-.42,1.42-.06-.04-.11-.08-.17-.11-.42-.21-.94-.19-1.41.04-.44.22-.82.61-1.07,1.1-.24.49-.33,1.03-.24,1.52.07.36.23.66.47.89-.23.19-.46.37-.7.53-.63.42-1.25.66-1.83.73.73.69,1.6,1.1,2.54,1.1,2.59,0,4.7-3.1,4.7-6.9Z"/>
  <path class="cls-6" d="M54.21,32.38s.01.06.01.09c0-.03-.01-.06-.01-.09Z"/>
  <path class="cls-6" d="M60.07,23.15c-.15-.02-.3-.03-.44-.03.15,0,.29.02.44.03Z"/>
  <path class="cls-6" d="M54.52,33.81c.02.07.04.13.06.2-.02-.07-.04-.13-.06-.2Z"/>
  <path class="cls-6" d="M60.4,23.21s.03,0,.04,0c0,0,0,0,0,0-.01,0-.02,0-.03,0Z"/>
  <path class="cls-6" d="M55.05,35.19c.03.06.06.11.09.17-.03-.06-.06-.11-.09-.17Z"/>
  <path class="cls-6" d="M55.83,36.46s-.04-.05-.06-.08c.01.02.02.04.04.06,0,0,.02,0,.02.01Z"/>
  <path class="cls-6" d="M59.62,35.39c-.23-.23-.4-.53-.47-.89-.09-.49,0-1.03.24-1.52.24-.49.62-.88,1.07-1.1.48-.24.99-.25,1.41-.04.06.03.11.07.17.11.18-.47.33-.94.42-1.42.36-1.9.15-4.24-.79-5.88-.62-.44-1.31-.7-2.05-.7-.69,0-1.35.23-1.94.62.53.33.96.88,1.24,1.64.36.96.44,2.16.23,3.27-.4,2.08-2.07,4.22-3.78,4.29.38,1.18.97,2.18,1.71,2.88.58-.07,1.2-.31,1.83-.73.24-.16.47-.34.7-.53Z"/>
  <path class="cls-5" d="M56.55,24.44s.05-.04.07-.06c0,0-.02,0-.03.02l-.04.04Z"/>
  <path class="cls-5" d="M56.11,24.89c-.27.31-.5.65-.72,1.01.32-.53.69-1.01,1.1-1.4l-.37.37s-.01.01-.02.02Z"/>
  <path class="cls-5" d="M54.3,28.85c-.02.13-.05.26-.07.39.02-.13.05-.26.07-.39Z"/>
  <path class="cls-5" d="M54.17,29.73c-.01.1-.03.2-.03.31,0-.1.02-.2.03-.31Z"/>
  <path class="cls-5" d="M54.1,30.86c0,.16,0,.34.02.52,0-.17-.02-.34-.02-.52Z"/>
  <path class="cls-5" d="M55.02,26.59c-.08.16-.15.32-.21.49.07-.17.14-.33.21-.49Z"/>
  <path class="cls-5" d="M54.29,32.85s-.02-.1-.03-.14c0,.04.01.09.02.13,0,0,0,0,0,.01Z"/>
  <path class="cls-5" d="M55.36,25.95c-.1.16-.18.33-.27.5.09-.17.17-.34.27-.5Z"/>
  <path class="cls-5" d="M54.73,27.28c-.06.16-.11.31-.16.47.05-.16.11-.32.16-.47Z"/>
  <path class="cls-5" d="M54.49,28.03c-.04.15-.08.29-.12.44.03-.15.07-.29.12-.44Z"/>
  <path class="cls-5" d="M59.17,29.49c.21-1.12.13-2.31-.23-3.27-.28-.76-.72-1.31-1.24-1.64-1.62,1.09-2.76,3.49-2.76,6.28,0,1.05.16,2.03.45,2.92,1.71-.06,3.39-2.21,3.78-4.29Z"/>
  <g>
    <path class="cls-4" d="M29.75,60.39c-1.76.69-4.8,1.42-7.52-.25-2.05-1.25-3.47-3.8-3.71-6.64-.17-2,.14-4.15,1.02-6.97.35-1.12.72-2.23,1.1-3.34.65-1.9,1.31-3.86,1.82-5.85.04-.17.1-.38.17-.62.38-1.31.96-3.29.3-4.49-.24-.44-.62-.74-1.13-.88-.19-.05-.39-.09-.6-.09-.88,0-1.9.62-2.57,2.94-.33,1.14-1.12,1.77-2.04,1.63-.91-.15-1.85-1.14-1.76-2.98,0-2.72,1.79-4.64,2.73-5.28,2.26-1.52,5.45-1.39,7.57.32,3.69,2.97,2.15,7.66-.06,12.29-.37.78-.77,1.55-1.16,2.32-1.05,2.04-2.14,4.16-2.76,6.4-.72,2.61-.69,4.77.1,6.43,1.74,3.63,5.17,3.88,7.9,2.88-.05-.28-.09-.56-.13-.84-1.29.5-5.12,1.56-7.02-2.4-.7-1.47-.72-3.44-.05-5.84.6-2.16,1.67-4.23,2.7-6.24.4-.78.8-1.56,1.18-2.34,1.47-3.08,4.54-9.5-.17-13.3-2.4-1.93-6-2.09-8.56-.36-1.07.72-3.1,2.9-3.1,5.95-.11,2.33,1.19,3.61,2.45,3.82,1.11.18,2.46-.43,2.97-2.22.51-1.78,1.23-2.55,2.13-2.28.29.08.49.24.63.48.5.9-.04,2.75-.37,3.85-.07.25-.14.47-.18.65-.49,1.96-1.16,3.9-1.8,5.79-.38,1.11-.76,2.23-1.11,3.36-.91,2.93-1.24,5.18-1.05,7.29.27,3.1,1.84,5.89,4.11,7.28,1.38.85,2.82,1.14,4.16,1.14,1.59,0,3.01-.41,4.05-.82-.09-.26-.18-.52-.26-.79Z"/>
    <path class="cls-4" d="M30.93,74.89c.23-.02.4-.22.38-.45,0-.02-.15-1.92,1.22-2.98.18-.14.22-.4.07-.59-.14-.18-.4-.21-.59-.07-1.74,1.34-1.55,3.62-1.54,3.72.01.15.11.27.24.34.04.02.07.03.11.03.02,0,.04.01.06.01.01,0,.02,0,.04,0Z"/>
    <path class="cls-4" d="M68.5,74.51c0-.1.19-2.37-1.54-3.71-.18-.14-.44-.11-.59.07-.14.18-.11.44.07.59,1.37,1.06,1.23,2.96,1.22,2.98-.02.23.15.43.38.45.01,0,.03,0,.04,0,.02,0,.04,0,.06-.01.04,0,.08-.02.12-.03.13-.06.23-.18.24-.34Z"/>
    <path class="cls-4" d="M47.6,37.31c-.45,0-1.02-.55-1.18-.75-.15-.18-.41-.2-.59-.05-.18.15-.2.41-.05.59.09.11.91,1.04,1.82,1.04s1.54-.73,1.89-1.39c.35.66.95,1.39,1.89,1.39s1.73-.94,1.82-1.04c.15-.18.13-.44-.05-.59s-.44-.13-.59.05c-.17.19-.74.75-1.18.75-.71,0-1.15-.87-1.35-1.4.3-.13.62-.33.87-.61.37-.41.56-.88.52-1.32-.08-.96-1.03-1.38-1.93-1.38s-1.85.43-1.93,1.38c-.04.45.15.92.52,1.32.25.27.56.48.87.61-.2.52-.64,1.4-1.36,1.4ZM49.49,33.43s1.05,0,1.1.62c.02.29-.18.56-.31.69-.3.32-.65.47-.79.47s-.5-.15-.79-.47c-.12-.13-.33-.4-.31-.69.05-.61,1.09-.62,1.1-.62Z"/>
    <path class="cls-4" d="M63.33,73.68c-.17-2.22-2.47-4.33-3.26-4.99,5.2-12.02,1.74-20.8-.26-24.38-.32-.58-.61-1.02-.81-1.32,2.67-1.08,4.77-2.66,6.22-4.69.45.28.89.67,1.27,1.18.08.11.21.17.34.17.09,0,.17-.03.25-.08.19-.14.23-.4.09-.58-.44-.6-.95-1.05-1.47-1.38.47-.77.85-1.6,1.13-2.48.57.1,1.16.29,1.74.68.07.05.15.07.23.07.14,0,.27-.07.35-.19.13-.19.07-.45-.12-.58-.66-.43-1.33-.67-1.97-.8.14-.56.26-1.14.33-1.74.35-3.05.12-5.64-.49-7.85,2.39-5.1,5.12-15.18,3.77-17.31-.27-.43-.63-.51-.89-.51-3.52,0-11.83,5.93-13.19,6.92-2.47-.92-5.2-1.4-7.1-1.4s-4.62.48-7.1,1.4c-1.37-.99-9.67-6.92-13.19-6.92-.26,0-.62.09-.89.51-1.34,2.13,1.38,12.21,3.77,17.31-.61,2.2-.84,4.8-.49,7.84.07.61.19,1.18.33,1.75-.62.13-1.27.37-1.91.79-.19.13-.25.39-.12.58.08.12.21.19.35.19.08,0,.16-.02.23-.07.55-.37,1.13-.56,1.67-.67.29.89.67,1.73,1.15,2.51-.5.33-.99.77-1.42,1.35-.14.19-.09.45.09.58.07.05.16.08.24.08.13,0,.26-.06.34-.17.36-.5.78-.87,1.22-1.15,1.44,2.01,3.54,3.59,6.19,4.66-.21.29-.49.74-.82,1.32-.69,1.22-1.55,3.03-2.17,5.42-1.08,4.13-1.62,10.76,1.93,18.96-.79.66-3.09,2.77-3.26,4.99-.04.53.06,1.03.26,1.49.16.35.37.69.66.99.59.62,1.56,1.05,2.76,1.35,0,0,0,0,0,0,0,0,0,0,.01,0,1.88.46,4.35.61,7.03.61,1.01,0,2.06-.02,3.1-.05,5.6.16,11.04.04,12.91-1.91.29-.3.5-.64.66-.98.21-.47.31-.97.27-1.5ZM59.86,76.6c-.23-.8-.87-2.5-2.45-3.56-.19-.13-.45-.08-.58.11-.13.19-.08.45.11.58,1.32.89,1.89,2.37,2.1,3.07-2.46.52-5.96.54-9.14.46v-8.52c0-3.6,2.7-3.84,2.81-3.85.23-.02.4-.22.39-.45-.02-.23-.22-.42-.44-.39-.03,0-2.24.19-3.17,2.41-.94-2.23-3.15-2.41-3.17-2.41-.23-.03-.43.16-.44.39-.02.23.16.43.39.45.12,0,2.81.25,2.81,3.85v8.52c-3.18.08-6.68.06-9.14-.46.21-.7.78-2.18,2.1-3.07.19-.13.24-.39.11-.58-.13-.19-.39-.24-.58-.11-1.58,1.07-2.22,2.77-2.45,3.56-.85-.25-1.52-.57-1.94-1.01-.52-.54-.75-1.15-.7-1.84.17-2.24,3.16-4.57,3.19-4.6.15-.12.21-.32.13-.5-6.28-14.21-.15-23.77.98-25.34,2.49.87,5.41,1.34,8.71,1.34s6.22-.46,8.71-1.34c1.13,1.57,7.26,11.14.98,25.34-.08.18-.03.38.13.5.03.02,3.02,2.35,3.19,4.6.05.7-.18,1.3-.7,1.84-.41.43-1.09.76-1.94,1.01ZM39.42,23.96c.69,0,1.35.23,1.94.62,1.62,1.09,2.76,3.49,2.76,6.28,0,1.05-.16,2.03-.45,2.92-.38,1.18-.97,2.18-1.71,2.88-.73.69-1.6,1.1-2.54,1.1-2.59,0-4.7-3.1-4.7-6.9,0-2.73,1.08-5.08,2.65-6.2.62-.44,1.31-.7,2.05-.7ZM35.81,36.71c-.47.07-1.1.22-1.77.53-.42-.68-.77-1.41-1.04-2.18,1.02-.02,1.78.23,1.9.27.26.51.56.97.9,1.38ZM36.58,37.48c.83.7,1.8,1.11,2.85,1.11,1.47,0,2.81-.82,3.8-2.13.02-.03.04-.05.06-.08.23-.31.44-.66.63-1.03.03-.06.06-.11.09-.17.18-.37.33-.77.47-1.18.02-.07.04-.13.06-.2.09-.31.17-.63.23-.96,0-.05.02-.1.03-.15.01-.08.03-.16.04-.24,0-.03.01-.06.01-.09.05-.33.07-.66.09-1,0-.17.02-.34.02-.52,0-.28-.01-.55-.03-.82,0-.1-.02-.2-.03-.31-.02-.16-.03-.33-.06-.49-.02-.13-.05-.26-.07-.39-.02-.13-.05-.25-.08-.37-.03-.15-.07-.29-.12-.44-.03-.09-.05-.19-.08-.28-.05-.16-.11-.32-.16-.47-.03-.07-.05-.13-.08-.2-.07-.17-.14-.33-.21-.49-.02-.04-.04-.09-.07-.13-.09-.17-.17-.34-.27-.5-.01-.02-.02-.04-.03-.05-.32-.53-.69-1.01-1.1-1.4-.02-.02-.04-.04-.06-.06-.02-.02-.05-.04-.07-.06-.87-.79-1.9-1.26-3.01-1.26-.15,0-.29.02-.44.03-.11.01-.22.03-.33.05-.01,0-.03,0-.04,0-2.67.55-4.72,3.76-4.72,7.64,0,1.26.22,2.44.6,3.49-.44-.09-1.04-.17-1.72-.13-.15-.56-.27-1.13-.34-1.73-1.09-9.48,3.66-14.35,7.84-16.75,2.77-1.59,6.82-2.45,9.23-2.45s6.46.86,9.23,2.45c4.18,2.41,8.93,7.27,7.84,16.75-.07.6-.19,1.17-.34,1.73-.65-.03-1.23.04-1.65.13.38-1.05.6-2.23.6-3.49,0-3.88-2.06-7.09-4.72-7.64-.01,0-.03,0-.04,0-.11-.02-.22-.04-.33-.05-.15-.02-.29-.03-.44-.03-1.11,0-2.15.47-3.01,1.26-.02.02-.05.04-.07.06-.02.02-.04.04-.06.06-.41.4-.78.87-1.1,1.4-.01.02-.02.03-.03.05-.1.16-.18.33-.27.5-.02.04-.04.09-.07.13-.08.16-.15.32-.21.49-.03.07-.05.13-.08.2-.06.16-.11.31-.16.47-.03.09-.05.18-.08.28-.04.14-.08.29-.12.44-.03.12-.05.25-.08.37-.02.13-.05.26-.07.39-.02.16-.04.33-.06.49-.01.1-.03.2-.03.31-.02.27-.03.55-.03.82,0,.17.01.35.02.52.02.34.04.68.09,1,0,.03.01.06.01.09.01.08.03.16.04.24,0,.05.02.1.03.14.06.33.14.65.23.96.02.07.04.13.06.2.13.41.29.81.47,1.18.03.06.06.11.09.17.19.37.4.71.63,1.03.02.03.04.05.06.08.99,1.32,2.33,2.13,3.8,2.13,1.04,0,2.01-.41,2.85-1.11.06,0,.96.02,1.98.44-2.75,3.76-7.98,5.89-14.97,5.89s-12.19-2.12-14.95-5.87c1.04-.45,1.96-.47,2.03-.47ZM29.2,7.75h0c.32,0,.69.07,1.09.17,3.37.86,9.31,4.95,11.19,6.29-.57.24-1.12.5-1.63.8-1.31.76-2.68,1.75-3.92,3.03-1.4,1.44-2.64,3.25-3.46,5.51-2.51-5.74-4.4-14.16-3.45-15.68.08-.13.14-.13.18-.13ZM69.78,7.75h0s.1,0,.18.13c.95,1.51-.94,9.93-3.45,15.68-.82-2.26-2.06-4.07-3.46-5.51-1.24-1.28-2.61-2.27-3.92-3.03-.51-.29-1.06-.55-1.63-.8,1.88-1.34,7.81-5.43,11.19-6.29.4-.1.77-.17,1.09-.17ZM55.38,33.78c-.28-.89-.45-1.88-.45-2.92,0-2.79,1.13-5.19,2.76-6.28.59-.4,1.25-.62,1.94-.62.73,0,1.43.26,2.05.7,1.57,1.12,2.65,3.48,2.65,6.2,0,3.81-2.11,6.9-4.7,6.9-.93,0-1.8-.41-2.54-1.1-.74-.7-1.34-1.7-1.71-2.88ZM64.14,35.33c.12-.04.86-.28,1.83-.27-.27.76-.61,1.48-1.02,2.16-.64-.29-1.26-.43-1.71-.5.34-.41.64-.87.9-1.38Z"/>
  </g>
</svg>