<?xml version="1.0" encoding="UTF-8"?>
<svg id="ICONS" xmlns="http://www.w3.org/2000/svg" viewBox="0 0 85.04 85.04">
  <defs>
    <style>
      .cls-1 {
        fill: #ff7d59;
      }

      .cls-2, .cls-3 {
        fill: #fff385;
      }

      .cls-3 {
        stroke: #231f20;
        stroke-miterlimit: 10;
        stroke-width: .75px;
      }

      .cls-4 {
        fill: #1d1d1b;
      }

      .cls-5 {
        fill: #70dfff;
      }

      .cls-6 {
        fill: #ff7575;
      }

      .cls-7 {
        fill: #ff9ef0;
      }

      .cls-8 {
        fill: #d1fb94;
      }
    </style>
  </defs>
  <path class="cls-2" d="M26.62,42.52c0,8.76,7.13,15.89,15.89,15.89s15.89-7.13,15.89-15.89-7.13-15.89-15.89-15.89-15.89,7.13-15.89,15.89ZM42.52,31.86c2.65,0,4.81,2.16,4.81,4.81s-2.16,4.81-4.81,4.81-4.81-2.16-4.81-4.81,2.16-4.81,4.81-4.81ZM32.47,38.24c.14-.28.61-.28.75,0,1.76,3.54,5.32,5.74,9.3,5.74s7.54-2.2,9.3-5.74c.07-.14.21-.23.37-.23s.3.09.37.23c.77,1.54,1.16,3.18,1.16,4.88,0,6.11-5.03,11.08-11.2,11.08s-11.2-4.97-11.2-11.08c0-1.7.39-3.34,1.16-4.88Z"/>
  <path class="cls-2" d="M62.34,46.36c-1.36,0-2.55-.71-3.23-1.78-.94,7.58-6.95,13.6-14.53,14.53,1.07.68,1.78,1.87,1.78,3.23s-.66,2.45-1.65,3.15c10.98-1.04,19.74-9.8,20.78-20.78-.69,1-1.84,1.65-3.15,1.65Z"/>
  <path class="cls-2" d="M42.52,53.37c5.72,0,10.37-4.6,10.37-10.25,0-1.29-.25-2.56-.73-3.76-2.01,3.38-5.63,5.45-9.64,5.45s-7.63-2.07-9.64-5.45c-.48,1.2-.73,2.46-.73,3.76,0,5.65,4.65,10.25,10.37,10.25Z"/>
  <path class="cls-2" d="M38.68,62.34c0-1.36.71-2.55,1.78-3.23-7.58-.94-13.6-6.95-14.53-14.53-.68,1.07-1.87,1.78-3.23,1.78s-2.45-.66-3.15-1.65c1.04,10.98,9.8,19.74,20.78,20.78-.99-.69-1.65-1.84-1.65-3.15Z"/>
  <path class="cls-2" d="M46.36,22.7c0,1.36-.71,2.55-1.78,3.23,7.58.94,13.6,6.95,14.53,14.53.68-1.07,1.87-1.78,3.23-1.78s2.45.66,3.15,1.65c-1.04-10.98-9.8-19.74-20.78-20.78.99.69,1.65,1.84,1.65,3.15Z"/>
  <path class="cls-2" d="M22.7,38.68c1.36,0,2.55.71,3.23,1.78.94-7.58,6.95-13.6,14.53-14.53-1.07-.68-1.78-1.87-1.78-3.23s.66-2.45,1.65-3.15c-10.98,1.04-19.74,9.8-20.78,20.78.69-1,1.84-1.65,3.15-1.65Z"/>
  <path class="cls-3" d="M42.52,13.94c-15.76,0-28.58,12.82-28.58,28.58s12.82,28.58,28.58,28.58,28.58-12.82,28.58-28.58-12.82-28.58-28.58-28.58ZM42.52,18.61c13.18,0,23.91,10.73,23.91,23.91s-10.73,23.91-23.91,23.91-23.91-10.73-23.91-23.91,10.73-23.91,23.91-23.91Z"/>
  <path class="cls-6" d="M39.51,22.7c0,1.66,1.35,3.01,3,3.01s3.01-1.35,3.01-3.01-1.35-3.01-3.01-3.01-3,1.35-3,3.01Z"/>
  <path class="cls-5" d="M45.52,62.34c0-1.66-1.35-3.01-3.01-3.01s-3,1.35-3,3.01,1.35,3.01,3,3.01,3.01-1.35,3.01-3.01Z"/>
  <path class="cls-1" d="M62.34,45.52c1.66,0,3-1.35,3-3.01s-1.35-3.01-3-3.01-3.01,1.35-3.01,3.01,1.35,3.01,3.01,3.01Z"/>
  <path class="cls-8" d="M22.7,45.52c1.66,0,3.01-1.35,3.01-3.01s-1.35-3.01-3.01-3.01-3,1.35-3,3.01,1.35,3.01,3,3.01Z"/>
  <path class="cls-7" d="M42.52,41.48c2.65,0,4.81-2.16,4.81-4.81s-2.16-4.81-4.81-4.81-4.81,2.16-4.81,4.81,2.16,4.81,4.81,4.81Z"/>
  <g>
    <path class="cls-4" d="M42.52,66.43c13.18,0,23.91-10.73,23.91-23.91s-10.73-23.91-23.91-23.91-23.91,10.73-23.91,23.91,10.73,23.91,23.91,23.91ZM19.69,42.52c0-1.66,1.35-3.01,3-3.01s3.01,1.35,3.01,3.01-1.35,3.01-3.01,3.01-3-1.35-3-3.01ZM19.55,44.71c.69,1,1.84,1.65,3.15,1.65s2.55-.71,3.23-1.78c.94,7.58,6.95,13.6,14.53,14.53-1.07.68-1.78,1.87-1.78,3.23s.66,2.45,1.65,3.15c-10.98-1.04-19.74-9.8-20.78-20.78ZM45.52,22.7c0,1.66-1.35,3.01-3.01,3.01s-3-1.35-3-3.01,1.35-3.01,3-3.01,3.01,1.35,3.01,3.01ZM58.41,42.52c0,8.76-7.13,15.89-15.89,15.89s-15.89-7.13-15.89-15.89,7.13-15.89,15.89-15.89,15.89,7.13,15.89,15.89ZM39.51,62.34c0-1.66,1.35-3.01,3-3.01s3.01,1.35,3.01,3.01-1.35,3.01-3.01,3.01-3-1.35-3-3.01ZM44.71,65.49c.99-.69,1.65-1.84,1.65-3.15s-.71-2.55-1.78-3.23c7.58-.94,13.6-6.95,14.53-14.53.68,1.07,1.87,1.78,3.23,1.78s2.45-.66,3.15-1.65c-1.04,10.98-9.8,19.74-20.78,20.78ZM59.34,42.52c0-1.66,1.35-3.01,3.01-3.01s3,1.35,3,3.01-1.35,3.01-3,3.01-3.01-1.35-3.01-3.01ZM65.49,40.33c-.69-1-1.84-1.65-3.15-1.65s-2.55.71-3.23,1.78c-.94-7.58-6.95-13.6-14.53-14.53,1.07-.68,1.78-1.87,1.78-3.23s-.66-2.45-1.65-3.15c10.98,1.04,19.74,9.8,20.78,20.78ZM40.33,19.55c-.99.69-1.65,1.84-1.65,3.15s.71,2.55,1.78,3.23c-7.58.94-13.6,6.95-14.53,14.53-.68-1.07-1.87-1.78-3.23-1.78s-2.45.66-3.15,1.65c1.04-10.98,9.8-19.74,20.78-20.78Z"/>
    <path class="cls-4" d="M42.52,54.21c6.18,0,11.2-4.97,11.2-11.08,0-1.7-.39-3.34-1.16-4.88-.07-.14-.22-.23-.37-.23s-.3.09-.37.23c-1.76,3.54-5.33,5.74-9.3,5.74s-7.54-2.2-9.3-5.74c-.14-.28-.61-.28-.75,0-.77,1.54-1.16,3.19-1.16,4.88,0,6.11,5.03,11.08,11.2,11.08ZM32.88,39.36c2.01,3.38,5.63,5.45,9.64,5.45s7.63-2.07,9.64-5.45c.48,1.2.73,2.46.73,3.76,0,5.65-4.65,10.25-10.37,10.25s-10.37-4.6-10.37-10.25c0-1.29.25-2.55.73-3.76Z"/>
  </g>
</svg>