<?xml version="1.0" encoding="UTF-8"?>
<svg id="ICONS" xmlns="http://www.w3.org/2000/svg" viewBox="0 0 84.35 85.04">
  <defs>
    <style>
      .cls-1, .cls-2 {
        fill: #fff385;
      }

      .cls-2 {
        stroke: #231f20;
        stroke-miterlimit: 10;
        stroke-width: .75px;
      }

      .cls-3 {
        fill: #1d1d1b;
      }

      .cls-4 {
        fill: #70dfff;
      }

      .cls-5 {
        fill: #ff7575;
      }

      .cls-6 {
        fill: #ff9ef0;
      }

      .cls-7 {
        fill: #d1fb94;
      }
    </style>
  </defs>
  <path class="cls-2" d="M42.17,11.06c-17.34,0-31.46,14.11-31.46,31.46s14.11,31.45,31.46,31.45,31.45-14.11,31.45-31.45-14.11-31.46-31.45-31.46ZM42.17,69.61c-14.94,0-27.09-12.15-27.09-27.09s12.15-27.09,27.09-27.09,27.09,12.15,27.09,27.09-12.15,27.09-27.09,27.09Z"/>
  <path class="cls-6" d="M28.85,65.13c3.91,2.31,8.46,3.65,13.33,3.65s9.42-1.33,13.33-3.65c-2.83-.36-9.4-4.05-13.33-6.38-3.93,2.33-10.5,6.02-13.33,6.38ZM45.07,64c0,1.6-1.3,2.9-2.9,2.9s-2.9-1.3-2.9-2.9,1.3-2.9,2.9-2.9,2.9,1.3,2.9,2.9Z"/>
  <path class="cls-6" d="M40.66,16.31c-10.92.63-20.07,7.96-23.39,17.93,1.93-1.43,7.12-2.25,15.78-2.49,3.97-10.77,6.22-14.29,7.61-15.44Z"/>
  <path class="cls-6" d="M51.3,31.75c8.67.25,13.86,1.06,15.79,2.49-3.32-9.97-12.47-17.31-23.39-17.93,1.39,1.15,3.64,4.67,7.61,15.44Z"/>
  <path class="cls-6" d="M28.08,47.99c-8.14-6.02-10.85-9.14-11.59-10.91-.37,1.76-.57,3.57-.57,5.44,0,8.41,3.98,15.91,10.15,20.72-.35-1.74-.11-5.66,2.01-15.25ZM22.77,53.06c-1.6,0-2.9-1.3-2.9-2.9s1.3-2.9,2.9-2.9,2.9,1.3,2.9,2.9-1.3,2.9-2.9,2.9Z"/>
  <path class="cls-6" d="M67.86,37.08c-.73,1.77-3.45,4.88-11.59,10.91,2.12,9.58,2.35,13.5,2.01,15.25,6.17-4.81,10.15-12.3,10.15-20.72,0-1.86-.2-3.68-.57-5.44ZM61.57,53.06c-1.6,0-2.9-1.3-2.9-2.9s1.3-2.9,2.9-2.9,2.9,1.3,2.9,2.9-1.3,2.9-2.9,2.9Z"/>
  <path class="cls-1" d="M42.17,50.54c3.92,0,7.1-3.19,7.1-7.1,0-2.23-1.02-4.26-2.73-5.59.15.47.24.96.24,1.45,0,2.54-2.07,4.61-4.61,4.61s-4.61-2.07-4.61-4.61c0-.5.08-.99.24-1.45-1.71,1.33-2.73,3.36-2.73,5.59,0,3.92,3.19,7.1,7.1,7.1Z"/>
  <path class="cls-1" d="M31.75,43.46c0,5.75,4.68,10.42,10.42,10.42s10.42-4.68,10.42-10.42-4.68-10.42-10.42-10.42-10.42,4.68-10.42,10.42ZM42.17,36.74c1.42,0,2.57,1.15,2.57,2.57s-1.15,2.57-2.57,2.57-2.57-1.15-2.57-2.57,1.15-2.57,2.57-2.57ZM38.73,36.29c.17-.09.39-.04.51.12.12.15.12.37,0,.52-.55.68-.83,1.49-.83,2.36,0,2.08,1.69,3.77,3.77,3.77s3.77-1.69,3.77-3.77c0-.87-.29-1.69-.83-2.36-.12-.15-.12-.37,0-.52.12-.15.33-.2.51-.12,2.77,1.34,4.49,4.08,4.49,7.14,0,4.38-3.56,7.94-7.93,7.94s-7.94-3.56-7.94-7.94c0-3.07,1.72-5.8,4.49-7.14Z"/>
  <path class="cls-1" d="M36.18,33.95c1.35-.86,2.9-1.43,4.56-1.64-.87-.5-1.47-1.43-1.47-2.5,0-1.6,1.3-2.9,2.9-2.9s2.9,1.3,2.9,2.9c0,1.07-.59,2-1.47,2.5,1.66.21,3.21.79,4.56,1.64-2.26-6.05-5.07-12.27-6-12.43-.92.16-3.73,6.38-5.99,12.43Z"/>
  <path class="cls-1" d="M30.92,43.46c0-3.2,1.34-6.08,3.49-8.13-5.95.18-12.08.87-12.6,1.77-.26.77,3.96,4.67,9.35,8.68-.16-.75-.24-1.53-.24-2.32Z"/>
  <path class="cls-1" d="M42.7,54.69c4.95,2.96,10.65,5.87,11.46,5.53.46-.66-.46-6.53-1.7-12.22-1.68,3.79-5.4,6.48-9.76,6.68Z"/>
  <path class="cls-1" d="M53.43,43.46c0,.8-.09,1.57-.24,2.32,5.4-4.01,9.61-7.91,9.35-8.69-.52-.9-6.64-1.58-12.6-1.77,2.15,2.05,3.49,4.93,3.49,8.13Z"/>
  <path class="cls-1" d="M31.88,48.01c-1.24,5.69-2.16,11.57-1.66,12.25.77.31,6.47-2.6,11.42-5.56-4.36-.2-8.08-2.89-9.76-6.68Z"/>
  <path class="cls-1" d="M56.27,47.99c8.14-6.02,10.85-9.14,11.59-10.91-.2-.97-.47-1.91-.77-2.84-1.93-1.43-7.12-2.25-15.79-2.49-3.97-10.77-6.22-14.29-7.61-15.44-.5-.03-1.01-.05-1.52-.05s-1.02.02-1.52.05c-1.39,1.15-3.64,4.67-7.61,15.44-8.67.25-13.86,1.06-15.78,2.49-.31.93-.57,1.87-.77,2.84.73,1.77,3.45,4.88,11.59,10.91-2.12,9.58-2.35,13.5-2.01,15.25.88.69,1.81,1.32,2.78,1.89,2.83-.36,9.4-4.05,13.33-6.38,3.93,2.33,10.5,6.02,13.33,6.38.97-.57,1.89-1.21,2.78-1.89.35-1.74.11-5.66-2.01-15.25ZM49.25,34.48c2.73.07,12.99.44,14.01,2.21,1,1.73-6.61,7.6-10.19,10.22,1.12,5.01,2.75,13.2,1.54,14.02-1.34.91-8.98-3.49-12.45-5.57-3.15,1.89-9.75,5.69-11.93,5.69-.22,0-.39-.04-.52-.12-1.2-.81.42-9.01,1.54-14.02-3.58-2.62-11.19-8.49-10.19-10.22,1.02-1.77,11.28-2.14,14.01-2.21,1.59-4.36,5.25-13.79,7.08-13.79s5.49,9.43,7.08,13.79Z"/>
  <path class="cls-3" d="M42.17,15.43c-14.94,0-27.09,12.15-27.09,27.09s12.15,27.09,27.09,27.09,27.09-12.15,27.09-27.09-12.15-27.09-27.09-27.09ZM58.28,63.24c-.88.69-1.81,1.32-2.78,1.89-3.91,2.31-8.46,3.65-13.33,3.65s-9.42-1.33-13.33-3.65c-.97-.57-1.89-1.21-2.78-1.89-6.17-4.81-10.15-12.3-10.15-20.72,0-1.86.2-3.68.57-5.44.2-.97.47-1.91.77-2.84,3.32-9.97,12.47-17.31,23.39-17.93.5-.03,1.01-.05,1.52-.05s1.02.02,1.52.05c10.92.63,20.07,7.96,23.39,17.93.31.92.57,1.87.77,2.84.37,1.76.57,3.57.57,5.44,0,8.41-3.98,15.91-10.15,20.72Z"/>
  <path class="cls-3" d="M42.17,51.37c4.38,0,7.93-3.56,7.93-7.94,0-3.07-1.72-5.8-4.49-7.14-.18-.08-.39-.04-.51.12-.12.15-.12.37,0,.52.55.68.83,1.49.83,2.36,0,2.08-1.69,3.77-3.77,3.77s-3.77-1.69-3.77-3.77c0-.87.29-1.69.83-2.36.12-.15.12-.37,0-.52-.12-.15-.33-.2-.51-.12-2.77,1.34-4.49,4.08-4.49,7.14,0,4.38,3.56,7.94,7.94,7.94ZM37.8,37.84c-.15.47-.24.96-.24,1.45,0,2.54,2.07,4.61,4.61,4.61s4.61-2.07,4.61-4.61c0-.5-.08-.99-.24-1.45,1.71,1.33,2.73,3.36,2.73,5.59,0,3.92-3.19,7.1-7.1,7.1s-7.1-3.19-7.1-7.1c0-2.23,1.02-4.26,2.73-5.59Z"/>
  <path class="cls-6" d="M42.17,41.88c1.42,0,2.57-1.15,2.57-2.57s-1.15-2.57-2.57-2.57-2.57,1.15-2.57,2.57,1.15,2.57,2.57,2.57Z"/>
  <path class="cls-5" d="M44.24,29.8c0-1.14-.93-2.07-2.07-2.07s-2.07.93-2.07,2.07.93,2.07,2.07,2.07,2.07-.93,2.07-2.07Z"/>
  <path class="cls-3" d="M35.09,34.48c-2.73.07-12.99.44-14.01,2.21-1,1.73,6.61,7.6,10.19,10.22-1.12,5.01-2.75,13.2-1.54,14.02.12.08.3.12.52.12,2.18,0,8.78-3.8,11.93-5.69,3.46,2.08,11.11,6.48,12.45,5.57,1.2-.81-.42-9.01-1.54-14.02,3.58-2.62,11.19-8.49,10.19-10.22-1.02-1.77-11.28-2.14-14.01-2.21-1.59-4.36-5.25-13.79-7.08-13.79s-5.49,9.43-7.08,13.79ZM42.17,31.87c-1.14,0-2.07-.93-2.07-2.07s.93-2.07,2.07-2.07,2.07.93,2.07,2.07-.93,2.07-2.07,2.07ZM42.17,33.04c5.75,0,10.42,4.68,10.42,10.42s-4.68,10.42-10.42,10.42-10.42-4.68-10.42-10.42,4.68-10.42,10.42-10.42ZM21.81,37.1c.52-.9,6.64-1.59,12.6-1.77-2.15,2.05-3.49,4.93-3.49,8.13,0,.8.09,1.57.24,2.32-5.4-4.01-9.61-7.91-9.35-8.68ZM30.22,60.26c-.5-.68.43-6.56,1.66-12.25,1.68,3.79,5.4,6.48,9.76,6.68-4.95,2.96-10.65,5.88-11.42,5.56ZM54.16,60.23c-.81.34-6.51-2.57-11.46-5.53,4.36-.2,8.08-2.89,9.76-6.68,1.24,5.69,2.16,11.56,1.7,12.22ZM62.54,37.1c.26.78-3.96,4.67-9.35,8.69.16-.75.24-1.53.24-2.32,0-3.2-1.34-6.08-3.49-8.13,5.95.18,12.08.87,12.6,1.77ZM48.17,33.95c-1.35-.86-2.9-1.43-4.56-1.64.87-.5,1.47-1.43,1.47-2.5,0-1.6-1.3-2.9-2.9-2.9s-2.9,1.3-2.9,2.9c0,1.07.59,2,1.47,2.5-1.66.21-3.21.79-4.56,1.64,2.26-6.05,5.07-12.27,5.99-12.43.93.16,3.74,6.38,6,12.43Z"/>
  <path class="cls-1" d="M63.64,50.16c0-1.14-.93-2.07-2.07-2.07s-2.07.93-2.07,2.07.93,2.07,2.07,2.07,2.07-.93,2.07-2.07Z"/>
  <path class="cls-3" d="M61.57,47.26c-1.6,0-2.9,1.3-2.9,2.9s1.3,2.9,2.9,2.9,2.9-1.3,2.9-2.9-1.3-2.9-2.9-2.9ZM59.51,50.16c0-1.14.93-2.07,2.07-2.07s2.07.93,2.07,2.07-.93,2.07-2.07,2.07-2.07-.93-2.07-2.07Z"/>
  <path class="cls-7" d="M22.77,48.09c-1.14,0-2.07.93-2.07,2.07s.93,2.07,2.07,2.07,2.07-.93,2.07-2.07-.93-2.07-2.07-2.07Z"/>
  <path class="cls-3" d="M22.77,47.26c-1.6,0-2.9,1.3-2.9,2.9s1.3,2.9,2.9,2.9,2.9-1.3,2.9-2.9-1.3-2.9-2.9-2.9ZM22.77,52.22c-1.14,0-2.07-.93-2.07-2.07s.93-2.07,2.07-2.07,2.07.93,2.07,2.07-.93,2.07-2.07,2.07Z"/>
  <path class="cls-4" d="M44.24,64c0-1.14-.93-2.07-2.07-2.07s-2.07.93-2.07,2.07.93,2.07,2.07,2.07,2.07-.93,2.07-2.07Z"/>
  <path class="cls-3" d="M39.27,64c0,1.6,1.3,2.9,2.9,2.9s2.9-1.3,2.9-2.9-1.3-2.9-2.9-2.9-2.9,1.3-2.9,2.9ZM40.11,64c0-1.14.93-2.07,2.07-2.07s2.07.93,2.07,2.07-.93,2.07-2.07,2.07-2.07-.93-2.07-2.07Z"/>
</svg>