<?xml version="1.0" encoding="UTF-8"?>
<svg id="ICONS" xmlns="http://www.w3.org/2000/svg" viewBox="0 0 85.04 85.04">
  <defs>
    <style>
      .cls-1, .cls-2 {
        fill: #fff385;
      }

      .cls-2 {
        stroke: #231f20;
        stroke-miterlimit: 10;
        stroke-width: .75px;
      }

      .cls-3 {
        fill: #1d1d1b;
      }

      .cls-4 {
        fill: #ff9ef0;
      }
    </style>
  </defs>
  <g>
    <path class="cls-2" d="M58.08,17.73c0-4.69-1.87-9.07-5.28-12.33-.14-.13-.35-.15-.51-.05-.16.1-.23.3-.17.49.57,1.69.86,3.43.86,5.18,0,8.96-7.29,16.26-16.26,16.26-4.2,0-8.19-1.61-11.24-4.53-.14-.13-.35-.15-.51-.05-.16.1-.23.3-.17.49,1.36,4.06,4.15,7.33,7.68,9.36-.21-.89-.25-1.67.01-2.12.2-.33.54-.48.96-.42,2.06.31,3.95,1.88,5.46,3.62,1.12-.45,2.34-.71,3.61-.71s2.5.25,3.61.71c1.51-1.74,3.4-3.31,5.46-3.62.37-.05.69.07.89.34,3.43-3.13,5.6-7.62,5.6-12.61Z"/>
    <path class="cls-4" d="M42.52,52.28c-1.92,0-3.7-.57-5.21-1.53,1.72,10.13-.2,17.55-.83,19.59h12.09c-.63-2.04-2.55-9.45-.83-19.59-1.51.97-3.29,1.53-5.21,1.53Z"/>
    <path class="cls-1" d="M45.37,76.73c-.14,0-.27.03-.41.03h-4.88c-.15,0-.27-.03-.41-.03.22.58.74,1.55,1.86,2,.63.25,1.35.25,1.98,0,1.12-.45,1.64-1.42,1.86-2Z"/>
    <path class="cls-1" d="M36.15,71.17c-.21.44-.64,1.53-.3,2.55.26.78.93,1.39,1.99,1.82.65.26,1.41.39,2.24.39h4.88c.84,0,1.59-.13,2.24-.39,1.06-.43,1.73-1.04,1.99-1.82.34-1.02-.09-2.11-.3-2.55h-12.74Z"/>
    <path class="cls-1" d="M40.47,51.2c-.28-.4-.44-.88-.44-1.41,0-.81.39-1.52.99-1.98-1.44-.41-2.62-1.4-3.31-2.7-.42.78-1.24,1.33-2.19,1.33-.39,0-.76-.1-1.09-.26,1.11,2.49,3.33,4.37,6.03,5.02Z"/>
    <path class="cls-1" d="M35.53,41.46c.61,0,1.16.23,1.6.6.02-.24.05-.48.11-.71-1.19-.21-2.3-.56-3.26-.98-.16.62-.26,1.27-.28,1.93.46-.51,1.11-.83,1.84-.83Z"/>
    <path class="cls-1" d="M49.51,46.44c-.95,0-1.77-.54-2.19-1.33-.69,1.3-1.87,2.28-3.31,2.7.6.46.99,1.17.99,1.98,0,.52-.16,1.01-.44,1.41,2.7-.65,4.93-2.53,6.03-5.02-.33.16-.7.26-1.09.26Z"/>
    <path class="cls-1" d="M47.81,41.34c.06.23.08.47.11.71.43-.37.99-.6,1.6-.6.73,0,1.39.32,1.84.83-.02-.66-.12-1.31-.28-1.93-.96.42-2.07.78-3.26.98Z"/>
    <path class="cls-1" d="M39.47,34.3c.21.26.4.51.59.77.05-.39.19-.76.4-1.07-.34.08-.67.18-.99.3Z"/>
    <path class="cls-1" d="M44.57,34c.21.31.35.68.4,1.07.19-.26.38-.51.59-.77-.32-.12-.65-.22-.99-.3Z"/>
    <path class="cls-1" d="M42.52,44c-1.56,0-2.87-1.04-3.3-2.47-.01,0-.02,0-.03,0-.38,0-.75-.03-1.13-.07-.09.37-.16.74-.16,1.13,0,2.55,2.07,4.62,4.62,4.62s4.62-2.07,4.62-4.62c0-.39-.06-.77-.16-1.13-.37.04-.75.07-1.13.07-.01,0-.02,0-.03,0-.43,1.42-1.74,2.47-3.3,2.47Z"/>
    <path class="cls-1" d="M35.53,42.29c-.91,0-1.66.74-1.66,1.66s.74,1.66,1.66,1.66,1.66-.74,1.66-1.66-.74-1.66-1.66-1.66Z"/>
    <path class="cls-1" d="M49.51,45.61c.91,0,1.66-.74,1.66-1.66s-.74-1.66-1.66-1.66-1.66.74-1.66,1.66.74,1.66,1.66,1.66Z"/>
    <path class="cls-1" d="M40.86,35.4c0,.91.74,1.66,1.66,1.66s1.66-.74,1.66-1.66-.74-1.66-1.66-1.66-1.66.74-1.66,1.66Z"/>
    <path class="cls-1" d="M42.52,48.13c-.91,0-1.66.74-1.66,1.66s.74,1.66,1.66,1.66,1.66-.74,1.66-1.66-.74-1.66-1.66-1.66Z"/>
    <path class="cls-1" d="M39.07,40.69c0-.06-.02-.11-.02-.17,0-1.25.68-2.35,1.68-2.95-1.41-2.3-4.26-6.28-7.4-6.75-.09-.01-.1,0-.12.03-.4.67.76,4.18,2.18,6.09.09.13.11.29.04.43-.07.14-.21.23-.37.23-1.4.03-2.8.24-3.2.45.51.67,3.68,2.6,7.2,2.63Z"/>
    <path class="cls-1" d="M51.71,30.83c-3.15.47-5.99,4.44-7.4,6.75,1,.61,1.68,1.7,1.68,2.95,0,.06-.01.11-.02.16,3.55-.03,6.76-2,7.22-2.65-.33-.19-1.77-.4-3.22-.44-.16,0-.3-.09-.37-.23-.07-.14-.05-.31.04-.43,1.43-1.91,2.58-5.42,2.18-6.09-.01-.02-.02-.04-.12-.03Z"/>
    <circle class="cls-4" cx="42.52" cy="40.53" r="2.63"/>
    <path class="cls-2" d="M35.23,14.35c-.81,3.67-.48,3.89-.26,4.04.2.13.57.38,3.64-1.46,2.14,1.28,2.97,1.55,3.34,1.55.16,0,.24-.05.3-.09.22-.15.55-.37-.26-4.04,3.21-2.37,2.92-2.86,2.77-3.13-.1-.17-.38-.66-3.96-.76-1.42-3.86-1.92-3.86-2.19-3.86s-.77,0-2.19,3.86c-3.58.1-3.86.6-3.96.76-.15.27-.44.76,2.77,3.13Z"/>
    <path class="cls-2" d="M22.46,36.85c-1.42-3.86-1.92-3.86-2.19-3.86s-.77,0-2.19,3.86c-3.58.1-3.86.6-3.96.76-.15.27-.44.76,2.77,3.13-.81,3.67-.48,3.89-.26,4.04.06.04.14.09.3.09.37,0,1.2-.27,3.34-1.55,3.08,1.84,3.45,1.59,3.64,1.46.22-.15.55-.37-.26-4.04,3.21-2.37,2.92-2.86,2.77-3.13-.1-.17-.38-.66-3.96-.76Z"/>
    <path class="cls-2" d="M70.92,37.61c-.1-.17-.38-.66-3.96-.76-1.42-3.86-1.92-3.86-2.19-3.86s-.77,0-2.19,3.86c-3.58.1-3.86.6-3.96.76-.15.27-.44.76,2.77,3.13-.81,3.67-.48,3.89-.26,4.04.2.13.57.38,3.64-1.46,2.14,1.28,2.97,1.55,3.34,1.55.16,0,.24-.05.3-.09.22-.15.55-.37-.26-4.04,3.21-2.37,2.92-2.86,2.77-3.13Z"/>
  </g>
  <path class="cls-3" d="M51.59,30c-2.06.31-3.95,1.88-5.46,3.62-1.12-.45-2.34-.71-3.61-.71s-2.5.25-3.61.71c-1.51-1.74-3.4-3.31-5.46-3.62-.41-.06-.76.09-.96.42-.27.44-.22,1.22-.01,2.12.34,1.41,1.1,3.11,1.81,4.26-1.53.08-3.1.35-3.3,1.05-.1.36.17.67.26.78.35.4,1.04.9,1.94,1.37-.23.83-.36,1.7-.36,2.6,0,2.99,1.37,5.67,3.51,7.45,2.24,11.97-.71,20.23-.82,20.53-.13.23-.99,1.81-.46,3.4.34,1.02,1.17,1.81,2.47,2.33.38.15.8.27,1.24.34.16.58.74,2.16,2.46,2.85.41.17.86.25,1.3.25s.89-.08,1.3-.25c1.72-.69,2.3-2.27,2.46-2.85.44-.08.85-.19,1.24-.34,1.3-.52,2.13-1.31,2.47-2.33.53-1.59-.33-3.17-.46-3.4-.11-.3-3.07-8.56-.83-20.53,2.14-1.78,3.51-4.46,3.51-7.45,0-.9-.13-1.77-.36-2.6.9-.47,1.59-.97,1.94-1.37.09-.1.36-.42.26-.78-.2-.7-1.77-.96-3.3-1.05,1.16-1.88,2.49-5.23,1.8-6.38-.02-.03-.05-.05-.07-.08-.2-.27-.52-.39-.89-.34ZM49.65,36.94c-.09.13-.11.29-.04.43.07.14.21.23.37.23,1.44.03,2.89.25,3.22.44-.46.65-3.67,2.62-7.22,2.65,0-.06.02-.11.02-.16,0-1.25-.68-2.35-1.68-2.95,1.41-2.31,4.25-6.28,7.4-6.75.09-.01.1,0,.12.03.4.67-.76,4.18-2.18,6.09ZM49.19,73.72c-.26.78-.93,1.39-1.99,1.82-.65.26-1.41.39-2.24.39h-4.88c-.84,0-1.59-.13-2.24-.39-1.06-.43-1.73-1.04-1.99-1.82-.34-1.02.09-2.11.3-2.55h12.74c.21.44.64,1.53.3,2.55ZM41.53,78.73c-1.12-.45-1.64-1.42-1.86-2,.14,0,.27.03.41.03h4.88c.14,0,.27-.03.41-.03-.22.58-.74,1.55-1.86,2-.63.25-1.35.25-1.98,0ZM48.56,70.34h-12.09c.63-2.04,2.55-9.46.83-19.59,1.51.97,3.29,1.53,5.21,1.53s3.7-.57,5.21-1.53c-1.72,10.13.2,17.55.83,19.59ZM31.87,38.06c.4-.22,1.8-.42,3.2-.45.16,0,.3-.09.37-.23.07-.14.05-.31-.04-.43-1.43-1.91-2.58-5.42-2.18-6.09.01-.02.03-.04.12-.03,3.14.47,5.99,4.44,7.4,6.75-1,.61-1.68,1.7-1.68,2.95,0,.06.01.11.02.17-3.52-.03-6.69-1.97-7.2-2.63ZM49.51,42.29c.91,0,1.66.74,1.66,1.66s-.74,1.66-1.66,1.66-1.66-.74-1.66-1.66.74-1.66,1.66-1.66ZM44.18,49.79c0,.91-.74,1.66-1.66,1.66s-1.66-.74-1.66-1.66.74-1.66,1.66-1.66,1.66.74,1.66,1.66ZM45.85,41.53c.38,0,.75-.03,1.13-.07.09.37.16.74.16,1.13,0,2.55-2.07,4.62-4.62,4.62s-4.62-2.07-4.62-4.62c0-.39.06-.77.16-1.13.37.04.75.07,1.13.07.01,0,.02,0,.03,0,.43,1.42,1.74,2.47,3.3,2.47s2.87-1.04,3.3-2.47c.01,0,.02,0,.03,0ZM42.52,43.16c-1.45,0-2.63-1.18-2.63-2.63s1.18-2.63,2.63-2.63,2.63,1.18,2.63,2.63-1.18,2.63-2.63,2.63ZM44.18,35.4c0,.91-.74,1.66-1.66,1.66s-1.66-.74-1.66-1.66.74-1.66,1.66-1.66,1.66.74,1.66,1.66ZM40.06,35.07c-.19-.26-.38-.51-.59-.77.32-.12.65-.22.99-.3-.21.31-.35.68-.4,1.07ZM37.18,43.95c0,.91-.74,1.66-1.66,1.66s-1.66-.74-1.66-1.66.74-1.66,1.66-1.66,1.66.74,1.66,1.66ZM45.57,34.3c-.21.26-.4.51-.59.77-.05-.39-.19-.76-.4-1.07.34.08.67.18.99.3ZM37.23,41.34c-.06.23-.08.47-.11.71-.43-.37-.99-.6-1.6-.6-.73,0-1.39.32-1.84.83.02-.66.12-1.31.28-1.93.96.42,2.07.78,3.26.98ZM35.53,46.44c.95,0,1.77-.54,2.19-1.33.69,1.3,1.87,2.28,3.31,2.7-.6.46-.99,1.17-.99,1.98,0,.52.16,1.01.44,1.41-2.7-.65-4.93-2.53-6.03-5.02.33.16.7.26,1.09.26ZM44.57,51.2c.28-.4.44-.89.44-1.41,0-.81-.39-1.52-.99-1.98,1.44-.41,2.62-1.4,3.31-2.7.42.78,1.24,1.33,2.19,1.33.39,0,.76-.1,1.09-.26-1.11,2.49-3.33,4.37-6.03,5.02ZM49.51,41.46c-.61,0-1.16.23-1.6.6-.02-.24-.05-.48-.11-.71,1.19-.21,2.31-.56,3.26-.98.16.62.26,1.27.28,1.93-.46-.51-1.11-.83-1.84-.83Z"/>
</svg>