<?xml version="1.0" encoding="UTF-8"?>
<svg id="ICONS" xmlns="http://www.w3.org/2000/svg" viewBox="0 0 85.04 85.04">
  <defs>
    <style>
      .cls-1 {
        fill: #fff385;
      }

      .cls-2 {
        fill: #1d1d1b;
      }

      .cls-3 {
        fill: #70dfff;
      }

      .cls-4 {
        fill: #ff7575;
      }

      .cls-5 {
        fill: #d1fb94;
      }
    </style>
  </defs>
  <g>
    <path class="cls-1" d="M42.52,31.73c1.38-1.6,6.94-7.5,13.96-7.84-.97-1.16-2.93-3.86-4.63-8.5-.17-.47-.37-.49-.43-.49-.72-.06-2.25,1.56-3.59,3.78-.07.12-.19.19-.33.2-.14.01-.27-.05-.35-.15-1.77-2.19-4.09-4.55-4.75-4.55s-2.97,2.36-4.75,4.55c-.09.11-.22.17-.35.15-.14,0-.26-.08-.33-.2-1.34-2.22-2.88-3.85-3.59-3.78-.06,0-.26.02-.43.49-1.7,4.63-3.65,7.33-4.63,8.5,7.13.22,12.8,6.24,14.2,7.85ZM47.4,21c.9,0,1.64.73,1.64,1.64s-.73,1.64-1.64,1.64-1.64-.73-1.64-1.64.73-1.64,1.64-1.64ZM42.4,21.15c.9,0,1.85,2.83,1.85,4.08s-.76,2.06-1.85,2.06-1.85-.85-1.85-2.06.95-4.08,1.85-4.08ZM37.4,21c.9,0,1.64.73,1.64,1.64s-.73,1.64-1.64,1.64-1.64-.73-1.64-1.64.73-1.64,1.64-1.64Z"/>
    <path class="cls-1" d="M16.4,39.64c.51,8.58,5.51,18.54,14.4,25.25-2.35-2.28-4.21-4.89-5.57-7.58,0,0,0,0-.01-.01-.02-.03-.03-.07-.05-.1-.18-.36-.34-.72-.5-1.08-.06-.13-.11-.25-.17-.38-.17-.39-.32-.78-.47-1.17-.01-.04-.03-.08-.04-.12-.46-1.27-.81-2.54-1.04-3.79-.03-.14-.05-.28-.08-.42-.05-.32-.1-.64-.14-.96-.03-.21-.05-.42-.06-.63-.02-.18-.05-.37-.06-.56,0-.08,0-.16,0-.25-.02-.5-.03-1-.01-1.49,0,0,0-.01,0-.02.18-4.41,2.11-7.77,5.33-9.17,2.6-1.13,5.35-1.1,8.16.09.14.06.23.19.25.33s-.04.29-.16.38c-1,.75-1.57,1.89-1.57,3.13,0,2.17,1.76,3.93,3.93,3.93,1.55,0,2.96-.92,3.59-2.33.07-.15.22-.25.38-.25h0c.16,0,.31.1.38.25.63,1.42,2.04,2.33,3.59,2.33,2.17,0,3.93-1.76,3.93-3.93,0-1.24-.57-2.38-1.56-3.13-.12-.09-.18-.24-.16-.38s.11-.27.25-.33c2.81-1.19,5.55-1.22,8.15-.09,3.23,1.4,5.15,4.76,5.34,9.17,0,0,0,.01,0,.02.02.49.01.98-.01,1.49,0,.08,0,.16,0,.25-.01.18-.04.37-.06.56-.02.21-.04.42-.06.63-.04.32-.08.64-.14.96-.02.14-.05.28-.08.43-.23,1.25-.58,2.52-1.04,3.79-.02.04-.03.08-.04.13-.15.39-.3.78-.47,1.17-.05.13-.11.25-.16.38-.16.36-.33.73-.51,1.09-.02.03-.03.06-.04.1,0,0,0,0-.01.01-1.36,2.69-3.21,5.29-5.56,7.57,8.88-6.7,13.88-16.67,14.39-25.24.41-6.84-2.02-11.91-6.66-13.92-9.86-4.27-18.49,6.11-19.1,6.87-.02.02-.03.04-.03.04-.08.1-.2.16-.33.16s-.25-.06-.33-.16c-.07-.09-6.29-7.94-14.26-7.94-1.57,0-3.2.3-4.87,1.02-4.64,2.01-7.07,7.08-6.66,13.92Z"/>
    <path class="cls-5" d="M37.4,23.44c.44,0,.8-.36.8-.8s-.36-.8-.8-.8-.8.36-.8.8.36.8.8.8Z"/>
    <path class="cls-1" d="M49.82,51.74c0,1.05-.22,2.04-.62,2.94h10.87c.77-1.99,1.26-3.96,1.46-5.88h-12.32c.4.9.62,1.9.62,2.94ZM54.88,49.58c1.19,0,2.16.97,2.16,2.16s-.97,2.16-2.16,2.16-2.16-.97-2.16-2.16.97-2.16,2.16-2.16Z"/>
    <path class="cls-1" d="M24.98,54.68h10.83c-.4-.9-.62-1.89-.62-2.94s.22-2.04.62-2.94h-12.29c.19,1.91.69,3.91,1.46,5.88ZM30.13,49.58c1.19,0,2.16.97,2.16,2.16s-.97,2.16-2.16,2.16-2.16-.97-2.16-2.16.97-2.16,2.16-2.16Z"/>
    <path class="cls-1" d="M59.73,55.51h-10.97c-.14.23-.3.46-.46.68v.51h10.89c.19-.39.37-.79.54-1.18Z"/>
    <path class="cls-1" d="M54.88,53.06c.73,0,1.32-.59,1.32-1.32s-.59-1.32-1.32-1.32-1.32.59-1.32,1.32.59,1.32,1.32,1.32Z"/>
    <circle class="cls-1" cx="30.13" cy="51.74" r="1.32"/>
    <path class="cls-1" d="M47.87,46.78c.33.36.63.76.89,1.18h12.84c.02-.4.03-.79.03-1.18h-13.75Z"/>
    <path class="cls-1" d="M36.71,56.19c-.17-.22-.32-.44-.46-.68h-10.94c.17.4.35.79.54,1.18h10.86v-.51Z"/>
    <path class="cls-1" d="M23.42,46.78c0,.39,0,.78.03,1.18h12.8c.26-.42.55-.82.89-1.18h-13.72Z"/>
    <path class="cls-3" d="M47.4,23.44c.44,0,.8-.36.8-.8s-.36-.8-.8-.8-.8.36-.8.8.36.8.8.8Z"/>
    <circle class="cls-1" cx="42.4" cy="62.7" r="1.11"/>
    <path class="cls-1" d="M38.73,69.39v-11.4c-.42-.26-.82-.55-1.18-.89v11.7c.39.21.78.4,1.18.59Z"/>
    <path class="cls-1" d="M44.41,70.2c.27-.1.53-.21.8-.32.08-.03.16-.07.24-.11v-11.35c-.9.4-1.89.62-2.94.62s-2.04-.22-2.94-.62v11.33c.09.04.18.08.27.12.24.1.48.19.72.29.19.08.39.15.58.22.46.17.92.32,1.38.46.46-.14.91-.29,1.37-.46.17-.06.35-.13.52-.2ZM42.4,60.76c1.07,0,1.94.87,1.94,1.94s-.87,1.94-1.94,1.94-1.94-.87-1.94-1.94.87-1.94,1.94-1.94Z"/>
    <path class="cls-1" d="M47.46,57.1c-.36.34-.76.63-1.18.89v11.42c.4-.19.79-.38,1.18-.59v-11.71Z"/>
    <path class="cls-1" d="M42.5,52.31c-1.79,0-3.27-.99-3.53-2.26-.25.51-.4,1.08-.4,1.69,0,2.17,1.76,3.93,3.93,3.93s3.93-1.76,3.93-3.93c0-.61-.15-1.18-.4-1.69-.26,1.28-1.74,2.26-3.53,2.26Z"/>
    <path class="cls-1" d="M42.5,45.25c-3.57,0-6.48,2.91-6.48,6.48s2.91,6.48,6.48,6.48,6.48-2.91,6.48-6.48-2.91-6.48-6.48-6.48ZM47.27,51.74c0,2.63-2.14,4.76-4.76,4.76s-4.76-2.14-4.76-4.76c0-1.9,1.13-3.54,2.75-4.3,0,0,0,0,.01,0,.12-.06.24-.1.36-.15.17-.06.34-.12.52-.16.08-.02.16-.04.25-.06.28-.05.56-.09.86-.09s.59.04.86.09c.08.02.16.04.25.06.18.04.36.1.52.16.12.05.24.09.36.15,0,0,.01,0,.02.01,1.62.76,2.75,2.4,2.75,4.3Z"/>
  </g>
  <g>
    <path class="cls-4" d="M59.81,57.31c-.07.13-.21.22-.36.22h-11.15v11.05c2.15-1.06,4.12-2.32,5.95-3.7,2.35-2.28,4.21-4.88,5.56-7.57Z"/>
    <path class="cls-4" d="M30.8,64.89c1.82,1.37,3.77,2.62,5.91,3.67v-11.04h-11.12c-.15,0-.29-.09-.36-.22,1.36,2.69,3.21,5.3,5.57,7.58Z"/>
    <path class="cls-4" d="M57.1,37.16c-2.6-1.13-5.35-1.1-8.15.09-.14.06-.23.18-.25.33s.04.29.16.38c.99.75,1.56,1.89,1.56,3.13,0,2.17-1.76,3.93-3.93,3.93-1.55,0-2.96-.92-3.59-2.33-.07-.15-.22-.25-.38-.25h0c-.16,0-.31.1-.38.25-.64,1.42-2.05,2.33-3.59,2.33-2.17,0-3.93-1.76-3.93-3.93,0-1.24.57-2.38,1.57-3.13.12-.09.18-.24.16-.38s-.11-.28-.25-.33c-2.81-1.19-5.56-1.22-8.16-.09-3.23,1.4-5.15,4.76-5.33,9.17.02-.21.2-.38.41-.38h15.04c1.23-.95,2.78-1.52,4.45-1.52s3.22.57,4.45,1.52h15.07c.22,0,.39.17.41.38-.18-4.41-2.11-7.77-5.34-9.17Z"/>
    <path class="cls-4" d="M43.41,25.23c0-1.07-.66-2.64-1.01-3.14-.36.5-1.01,2.07-1.01,3.14,0,.75.39,1.22,1.01,1.22s1.01-.47,1.01-1.22Z"/>
    <path class="cls-4" d="M42.5,52.31c1.79,0,3.27-.98,3.53-2.26-.63-1.32-1.97-2.24-3.53-2.24s-2.9.92-3.53,2.24c.26,1.28,1.74,2.26,3.53,2.26Z"/>
  </g>
  <g>
    <path class="cls-2" d="M62.31,24.96c-1.62-.7-3.2-1.02-4.72-1.08-.47-.49-2.91-3.2-4.96-8.79-.29-.79-.78-1-1.13-1.03-1.46-.14-3.23,2.36-4.07,3.68-1.21-1.45-3.82-4.41-5.03-4.41s-3.82,2.96-5.03,4.41c-.85-1.32-2.66-3.82-4.07-3.68-.36.03-.84.24-1.13,1.03-2.06,5.59-4.52,8.32-4.97,8.79-1.44.08-2.94.41-4.47,1.07-4.98,2.15-7.59,7.53-7.17,14.73.08,1.29.27,2.62.55,3.95.05.23.08.47.13.7.12.51.27,1.02.41,1.52.08.29.14.57.23.85,1.92,6.21,5.87,12.5,11.64,17.41.14.12.27.25.42.37.51.42,1.05.81,1.59,1.21.26.19.49.39.76.58.52.37,1.08.71,1.62,1.05.3.19.59.4.9.58.46.27.95.52,1.43.77.42.23.83.47,1.27.68.37.18.76.33,1.14.5.57.26,1.13.53,1.73.76.28.11.59.2.88.3.04.01.08.03.12.04h0c.16.06.31.12.47.18.52.19,1.04.37,1.57.52.04.01.08.02.12.02s.08,0,.12-.02c0,0,0,0,0,0,0,0,0,0,0,0,.52-.15,1.03-.33,1.55-.52.15-.05.29-.11.44-.17,0,0,0,0,0,0,.08-.03.17-.06.25-.09.26-.09.53-.17.79-.27.61-.24,1.2-.52,1.79-.79.36-.16.73-.3,1.08-.47.44-.21.85-.46,1.27-.68.48-.26.97-.5,1.43-.77.27-.16.51-.34.77-.5.59-.37,1.18-.73,1.75-1.13.13-.09.25-.19.38-.29.67-.49,1.33-.98,1.96-1.5.06-.05.1-.1.16-.14.69-.58,1.36-1.17,2-1.79.04-.04.08-.08.12-.12,6.82-6.63,10.64-15.23,11.09-22.77.43-7.21-2.18-12.58-7.16-14.73ZM33.38,14.89c.7-.07,2.25,1.56,3.59,3.78.07.12.19.19.33.2.14.01.27-.05.35-.15,1.77-2.19,4.1-4.55,4.75-4.55s2.97,2.36,4.75,4.55c.09.11.22.17.35.15.14,0,.26-.08.33-.2,1.34-2.22,2.87-3.84,3.59-3.78.06,0,.26.02.43.49,1.71,4.64,3.66,7.34,4.63,8.5-7.02.34-12.58,6.25-13.96,7.84-1.4-1.62-7.07-7.63-14.2-7.85.98-1.17,2.92-3.86,4.63-8.5.17-.47.37-.49.43-.49ZM27.93,24.7c7.98,0,14.19,7.84,14.26,7.94.08.1.2.16.33.16s.25-.06.33-.16c0,0,.01-.02.03-.04.61-.76,9.23-11.14,19.1-6.87,4.64,2.01,7.07,7.08,6.66,13.92-.51,8.57-5.51,18.54-14.39,25.24-1.83,1.38-3.8,2.63-5.95,3.7v-11.05h11.15c.15,0,.29-.09.36-.22,0,0,0,0,.01-.01.02-.03.03-.06.04-.1.18-.36.35-.72.51-1.09.06-.13.11-.25.16-.38.07-.16.13-.32.19-.48,0,0,0,0,0,0,0-.01,0-.02.01-.03.09-.22.18-.44.26-.66.02-.04.03-.08.04-.13.11-.29.2-.59.3-.88,0-.02.01-.03.02-.05.31-.96.55-1.91.73-2.85.03-.14.06-.28.08-.43.05-.32.1-.64.14-.96.03-.21.05-.42.06-.63,0-.07,0-.13.01-.2,0-.01,0-.02,0-.04,0,0,0,0,0,0,.01-.19.03-.38.04-.57.02-.5.03-1,.01-1.49,0,0,0-.01,0-.02-.02-.21-.2-.38-.41-.38h-15.07c-1.23-.95-2.78-1.52-4.45-1.52s-3.22.57-4.45,1.52h-15.04c-.22,0-.39.17-.41.38,0,0,0,.01,0,.02-.02.49-.01.99.01,1.49,0,.18.03.36.04.54,0,0,0,0,0,0,0,0,0,0,0,0,0,.09.01.17.02.26.02.21.04.42.06.63.04.32.08.64.14.96.02.14.05.28.08.42.24,1.25.58,2.53,1.04,3.79.01.04.03.08.04.12.09.23.18.46.28.69,0,0,0,0,0,0,.06.16.12.32.19.47.05.13.11.26.17.38.16.36.33.72.5,1.08.02.03.03.07.05.1,0,0,0,0,.01.01.07.13.21.22.36.22h11.12v11.04c-2.14-1.05-4.1-2.3-5.91-3.67-8.89-6.7-13.89-16.67-14.4-25.25-.41-6.84,2.02-11.91,6.66-13.92,1.67-.72,3.3-1.02,4.87-1.02ZM42.52,70.85c-.46-.14-.92-.3-1.38-.46-.2-.07-.39-.15-.58-.22-.24-.09-.48-.19-.72-.29-.09-.04-.18-.08-.27-.12v-11.33c.9.4,1.89.62,2.94.62s2.04-.22,2.94-.62v11.35c-.08.03-.16.07-.24.11-.26.11-.53.22-.8.32-.17.07-.35.14-.52.2-.45.16-.91.32-1.37.46ZM37.55,57.1c.36.34.76.63,1.18.89v11.4c-.4-.19-.79-.39-1.18-.59v-11.7ZM23.52,48.79h12.29c-.4.9-.62,1.9-.62,2.94s.22,2.04.62,2.94h-10.83c-.77-1.97-1.26-3.97-1.46-5.88ZM46.28,69.4v-11.42c.42-.26.82-.55,1.18-.89v11.71c-.39.21-.78.4-1.18.59ZM61.52,48.79c-.19,1.92-.68,3.9-1.46,5.88h-10.87c.4-.9.62-1.89.62-2.94s-.22-2.04-.62-2.94h12.32ZM48.3,56.19c.17-.22.32-.44.46-.68h10.97c-.17.4-.35.79-.54,1.18h-10.89v-.51ZM61.59,47.96h-12.84c-.26-.42-.55-.82-.89-1.18h13.75c0,.39,0,.78-.03,1.18ZM48.99,51.74c0,3.57-2.91,6.48-6.48,6.48s-6.48-2.91-6.48-6.48,2.91-6.48,6.48-6.48,6.48,2.91,6.48,6.48ZM36.25,47.96h-12.8c-.02-.4-.03-.79-.03-1.18h13.72c-.33.36-.63.76-.89,1.18ZM25.31,55.51h10.94c.14.23.3.46.46.68v.51h-10.86c-.19-.39-.37-.79-.54-1.18Z"/>
    <path class="cls-2" d="M42.4,27.29c1.09,0,1.85-.85,1.85-2.06s-.95-4.08-1.85-4.08-1.85,2.83-1.85,4.08.76,2.06,1.85,2.06ZM41.39,25.23c0-1.07.66-2.64,1.01-3.14.36.5,1.01,2.07,1.01,3.14,0,.75-.39,1.22-1.01,1.22s-1.01-.47-1.01-1.22Z"/>
    <path class="cls-2" d="M37.4,24.27c.9,0,1.64-.73,1.64-1.64s-.73-1.64-1.64-1.64-1.64.73-1.64,1.64.73,1.64,1.64,1.64ZM37.4,21.83c.44,0,.8.36.8.8s-.36.8-.8.8-.8-.36-.8-.8.36-.8.8-.8Z"/>
    <path class="cls-2" d="M47.4,24.27c.9,0,1.64-.73,1.64-1.64s-.73-1.64-1.64-1.64-1.64.73-1.64,1.64.73,1.64,1.64,1.64ZM47.4,21.83c.44,0,.8.36.8.8s-.36.8-.8.8-.8-.36-.8-.8.36-.8.8-.8Z"/>
    <path class="cls-2" d="M30.13,53.89c1.19,0,2.16-.97,2.16-2.16s-.97-2.16-2.16-2.16-2.16.97-2.16,2.16.97,2.16,2.16,2.16ZM30.13,50.41c.73,0,1.32.59,1.32,1.32s-.59,1.32-1.32,1.32-1.32-.59-1.32-1.32.59-1.32,1.32-1.32Z"/>
    <path class="cls-2" d="M54.88,53.89c1.19,0,2.16-.97,2.16-2.16s-.97-2.16-2.16-2.16-2.16.97-2.16,2.16.97,2.16,2.16,2.16ZM54.88,50.41c.73,0,1.32.59,1.32,1.32s-.59,1.32-1.32,1.32-1.32-.59-1.32-1.32.59-1.32,1.32-1.32Z"/>
    <path class="cls-2" d="M42.4,64.64c1.07,0,1.94-.87,1.94-1.94s-.87-1.94-1.94-1.94-1.94.87-1.94,1.94.87,1.94,1.94,1.94ZM42.4,61.59c.61,0,1.11.5,1.11,1.11s-.5,1.11-1.11,1.11-1.11-.5-1.11-1.11.5-1.11,1.11-1.11Z"/>
    <path class="cls-2" d="M44.5,47.43c-.12-.05-.24-.1-.36-.15-.17-.06-.34-.12-.52-.16-.08-.02-.16-.04-.25-.06-.28-.05-.57-.09-.86-.09s-.58.04-.86.09c-.08.02-.17.04-.25.06-.18.04-.35.1-.52.16-.12.05-.24.09-.36.15,0,0,0,0-.01,0-1.62.76-2.75,2.4-2.75,4.3,0,2.63,2.14,4.76,4.76,4.76s4.76-2.14,4.76-4.76c0-1.9-1.13-3.54-2.75-4.3,0,0-.01,0-.02-.01ZM46.43,51.74c0,2.17-1.76,3.93-3.93,3.93s-3.93-1.76-3.93-3.93c0-.61.15-1.18.4-1.69.63-1.32,1.97-2.24,3.53-2.24s2.9.92,3.53,2.24c.25.51.4,1.08.4,1.69Z"/>
  </g>
</svg>