<?xml version="1.0" encoding="UTF-8"?>
<svg id="ICONS" xmlns="http://www.w3.org/2000/svg" viewBox="0 0 85.04 85.04">
  <defs>
    <style>
      .cls-1 {
        fill: #ff7d59;
      }

      .cls-2 {
        fill: #fff385;
      }

      .cls-3 {
        fill: #1d1d1b;
      }

      .cls-4 {
        fill: #70dfff;
      }

      .cls-5 {
        fill: #ff7575;
      }

      .cls-6 {
        fill: #ff9ef0;
      }

      .cls-7 {
        fill: #d1fb94;
      }
    </style>
  </defs>
  <g>
    <path class="cls-5" d="M15.52,50.58c.68-.87,1.4-1.67,2.15-2.42-1.2-1.28-1.92-3.97-2.26-7.2-2.06,1.14-4.04,2.46-5.1,3.79-.02.07.03.51.62,1.44,1.06,1.68,2.96,3.56,4.59,4.39Z"/>
    <path class="cls-5" d="M74.11,46.19c.59-.93.64-1.37.61-1.45-1.05-1.33-3.03-2.64-5.09-3.78-.34,3.23-1.06,5.92-2.26,7.2.75.75,1.47,1.55,2.15,2.42,1.62-.84,3.52-2.71,4.59-4.39Z"/>
    <path class="cls-5" d="M32.69,45.02c-4.05,2.02-9.07,4.13-12.29,4.13-.83,0-1.53-.15-2.08-.46-2.92,2.92-5.41,6.7-6.64,11.58-.01.04-.02.07-.02.11.53-.32,1.59-1.26,2.54-2.11,1.53-1.36,3.44-3.06,5.3-4.26.07-.04.15-.07.23-.07.07,0,.14.02.2.05.13.08.22.22.21.37,0,.08-.15,7.67,2.07,11.38.3-.41.8-1.41,1.3-2.38,2.01-3.97,5.7-11.19,12.11-15.65-1.11-.74-2.1-1.65-2.92-2.69Z"/>
    <path class="cls-5" d="M66.72,48.69c-.55.32-1.25.46-2.08.46-3.23,0-8.24-2.11-12.29-4.13-.83,1.04-1.81,1.96-2.92,2.69,6.4,4.46,10.09,11.68,12.11,15.65.49.97,1,1.97,1.3,2.38,2.22-3.71,2.08-11.3,2.07-11.38,0-.15.08-.3.21-.37.13-.08.3-.07.43.01,1.86,1.19,3.76,2.89,5.3,4.26.95.85,2.01,1.79,2.54,2.11,0-.03-.02-.07-.02-.11-1.23-4.88-3.72-8.66-6.64-11.58Z"/>
    <path class="cls-5" d="M18.66,47.93c2.16,1.39,8.3-1.01,13.52-3.59-1.39-2.02-2.2-4.46-2.2-7.08,0-3.98,1.87-7.52,4.77-9.82-4.82-3.63-11.62-8.29-14.28-8.29-.14,0-.27.01-.38.04-1.28.29-2.52,3.09-3.29,7.49-1.44,8.16-.93,19.46,1.87,21.27Z"/>
    <path class="cls-5" d="M50.29,27.43c2.9,2.3,4.77,5.84,4.77,9.82,0,2.63-.82,5.07-2.2,7.08,5.22,2.58,11.36,4.99,13.52,3.59,2.8-1.81,3.31-13.11,1.87-21.26-.78-4.4-2.01-7.2-3.29-7.49-2.33-.53-9.59,4.43-14.66,8.26Z"/>
    <path class="cls-2" d="M40.44,48.77c-.35-.45-.57-1-.57-1.61,0-.8.37-1.51.93-2-3.09-.67-5.52-3.1-6.19-6.19-.49.56-1.2.93-2,.93-.61,0-1.17-.22-1.61-.56.86,4.79,4.64,8.57,9.43,9.43Z"/>
    <path class="cls-2" d="M44.6,25.74c.35.45.57,1,.57,1.61,0,.8-.37,1.51-.93,2,3.09.67,5.52,3.1,6.19,6.19.49-.56,1.2-.93,2-.93.61,0,1.17.22,1.61.56-.86-4.79-4.64-8.57-9.43-9.43Z"/>
    <path class="cls-2" d="M54.03,39.33c-.45.35-1,.56-1.61.56-.8,0-1.51-.37-2-.93-.67,3.08-3.1,5.52-6.19,6.19.56.49.93,1.2.93,2,0,.61-.22,1.17-.57,1.61,4.79-.86,8.57-4.64,9.43-9.43Z"/>
    <path class="cls-2" d="M31.01,35.17c.45-.35,1-.56,1.61-.56.8,0,1.51.37,2,.93.67-3.09,3.1-5.52,6.19-6.19-.56-.49-.93-1.2-.93-2,0-.61.22-1.17.57-1.61-4.79.86-8.57,4.64-9.43,9.43Z"/>
    <path class="cls-2" d="M42.52,30c-4,0-7.25,3.25-7.25,7.25s3.25,7.25,7.25,7.25,7.25-3.25,7.25-7.25-3.25-7.25-7.25-7.25ZM42.53,32.14c1.41,0,2.56,1.15,2.56,2.56s-1.15,2.56-2.56,2.56-2.56-1.15-2.56-2.56,1.15-2.56,2.56-2.56ZM48.17,35.22c.17.55.26,1.13.26,1.71,0,3.18-2.59,5.77-5.77,5.77s-5.77-2.59-5.77-5.77c0-.58.09-1.15.26-1.71.05-.17.21-.29.4-.29s.34.12.4.29c.64,2.08,2.54,3.47,4.71,3.47s4.07-1.4,4.71-3.47c.05-.17.21-.29.4-.29s.34.12.4.29Z"/>
    <path class="cls-5" d="M42.52,29.17c1,0,1.81-.81,1.81-1.81s-.81-1.81-1.81-1.81-1.81.81-1.81,1.81.81,1.81,1.81,1.81Z"/>
    <circle class="cls-6" cx="42.53" cy="34.7" r="2.56"/>
    <path class="cls-4" d="M42.52,45.34c-1,0-1.81.81-1.81,1.81s.81,1.81,1.81,1.81,1.81-.81,1.81-1.81-.81-1.81-1.81-1.81Z"/>
    <path class="cls-1" d="M54.23,37.25c0-1-.81-1.81-1.81-1.81s-1.81.81-1.81,1.81.81,1.81,1.81,1.81,1.81-.81,1.81-1.81Z"/>
    <path class="cls-7" d="M32.62,35.44c-1,0-1.81.81-1.81,1.81s.81,1.81,1.81,1.81,1.81-.81,1.81-1.81-.81-1.81-1.81-1.81Z"/>
    <path class="cls-2" d="M42.66,39.53c-2.06,0-3.9-1.07-4.93-2.77,0,.06,0,.11,0,.17,0,2.72,2.21,4.93,4.93,4.93s4.93-2.21,4.93-4.93c0-.06,0-.11,0-.17-1.03,1.7-2.87,2.77-4.93,2.77Z"/>
  </g>
  <g>
    <path class="cls-3" d="M75.33,45.67c.28-.65.29-1.12.04-1.44-1.2-1.51-3.42-2.96-5.67-4.19.35-4.37.07-9.53-.64-13.53-.61-3.45-1.79-7.67-3.93-8.16-2.86-.65-10.81,4.94-15.55,8.54-2.02-1.38-4.45-2.19-7.07-2.19s-5.06.81-7.07,2.19c-4.74-3.6-12.69-9.19-15.55-8.54-2.14.49-3.32,4.71-3.93,8.16-.71,4-.99,9.16-.64,13.53-2.25,1.22-4.47,2.68-5.67,4.18-.25.31-.24.78.04,1.44.67,1.56,3.03,4.37,5.3,5.6-1.8,2.46-3.28,5.36-4.14,8.79-.06.25-.23.9.22,1.17.58.35,1.34-.28,3.66-2.34,1.33-1.19,2.95-2.63,4.55-3.75.02,2.16.28,8.14,2.36,11.31.12.18.3.28.49.28.01,0,.02,0,.03,0,.54-.03.9-.69,2.06-2.98,2.01-3.96,5.72-11.22,12.15-15.55,1.81,1.02,3.9,1.61,6.12,1.61s4.31-.59,6.12-1.6c6.43,4.33,10.14,11.59,12.15,15.55,1.16,2.29,1.52,2.95,2.06,2.99.01,0,.02,0,.03,0,.2,0,.37-.1.49-.28,2.09-3.17,2.34-9.15,2.37-11.31,1.6,1.12,3.22,2.56,4.55,3.75,2.32,2.06,3.07,2.69,3.66,2.34.45-.27.28-.92.22-1.17-.86-3.43-2.34-6.33-4.14-8.79,2.27-1.22,4.63-4.03,5.3-5.6ZM73.38,60.37c-.53-.32-1.59-1.26-2.54-2.11-1.53-1.36-3.44-3.06-5.3-4.26-.13-.08-.3-.09-.43-.01-.13.08-.22.22-.21.37,0,.08.14,7.67-2.07,11.38-.3-.41-.8-1.41-1.3-2.38-2.01-3.97-5.7-11.19-12.11-15.65,1.11-.74,2.1-1.65,2.92-2.69,4.05,2.02,9.07,4.13,12.29,4.13.83,0,1.53-.15,2.08-.46,2.92,2.92,5.41,6.7,6.64,11.58,0,.04.02.07.02.11ZM23.51,63.37c-.49.97-1,1.97-1.3,2.38-2.22-3.71-2.08-11.3-2.07-11.38,0-.15-.08-.3-.21-.37-.06-.04-.13-.05-.2-.05-.08,0-.16.02-.23.07-1.86,1.19-3.76,2.89-5.3,4.26-.95.85-2.01,1.79-2.54,2.11,0-.03.01-.07.02-.11,1.22-4.87,3.72-8.66,6.64-11.58.55.32,1.25.46,2.08.46,3.23,0,8.24-2.11,12.29-4.13.83,1.04,1.81,1.96,2.92,2.69-6.4,4.46-10.09,11.68-12.11,15.65ZM10.32,44.75c1.06-1.33,3.03-2.65,5.1-3.79.34,3.23,1.06,5.92,2.26,7.2-.75.75-1.47,1.55-2.15,2.42-1.62-.84-3.52-2.71-4.59-4.39-.59-.93-.64-1.37-.62-1.44ZM16.79,26.67c.78-4.4,2.01-7.2,3.29-7.49.12-.03.24-.04.38-.04,2.66,0,9.46,4.66,14.28,8.29-2.9,2.3-4.77,5.84-4.77,9.82,0,2.63.82,5.07,2.2,7.08-5.22,2.58-11.36,4.99-13.52,3.59-2.8-1.81-3.31-13.11-1.87-21.27ZM68.25,26.67c1.44,8.15.93,19.46-1.87,21.26-2.16,1.39-8.29-1.01-13.52-3.59,1.39-2.02,2.2-4.46,2.2-7.08,0-3.98-1.87-7.52-4.77-9.82,5.07-3.82,12.33-8.78,14.66-8.26,1.29.29,2.52,3.09,3.29,7.49ZM42.52,48.96c-1,0-1.81-.81-1.81-1.81s.81-1.81,1.81-1.81,1.81.81,1.81,1.81-.81,1.81-1.81,1.81ZM42.52,25.55c1,0,1.81.81,1.81,1.81s-.81,1.81-1.81,1.81-1.81-.81-1.81-1.81.81-1.81,1.81-1.81ZM50.61,37.25c0-1,.81-1.81,1.81-1.81s1.81.81,1.81,1.81-.81,1.81-1.81,1.81-1.81-.81-1.81-1.81ZM42.52,44.51c-4,0-7.25-3.25-7.25-7.25s3.25-7.25,7.25-7.25,7.25,3.25,7.25,7.25-3.25,7.25-7.25,7.25ZM32.62,39.06c-1,0-1.81-.81-1.81-1.81s.81-1.81,1.81-1.81,1.81.81,1.81,1.81-.81,1.81-1.81,1.81ZM54.03,35.17c-.45-.35-1-.56-1.61-.56-.8,0-1.51.37-2,.93-.67-3.08-3.1-5.52-6.19-6.19.56-.49.93-1.2.93-2,0-.61-.22-1.17-.57-1.61,4.79.86,8.57,4.64,9.43,9.43ZM39.87,27.36c0,.8.37,1.51.93,2-3.09.67-5.52,3.1-6.19,6.19-.49-.56-1.2-.93-2-.93-.61,0-1.17.22-1.61.56.86-4.79,4.64-8.57,9.43-9.43-.35.45-.57,1-.57,1.61ZM31.01,39.33c.45.35,1,.56,1.61.56.8,0,1.51-.37,2-.93.67,3.09,3.1,5.52,6.19,6.19-.56.49-.93,1.2-.93,2,0,.61.22,1.17.57,1.61-4.79-.86-8.57-4.64-9.43-9.43ZM45.16,47.15c0-.8-.37-1.51-.93-2,3.09-.67,5.52-3.1,6.19-6.19.49.56,1.2.93,2,.93.61,0,1.17-.22,1.61-.56-.86,4.79-4.64,8.57-9.43,9.43.35-.45.57-1,.57-1.61ZM67.37,48.16c1.2-1.28,1.92-3.97,2.26-7.2,2.06,1.14,4.03,2.46,5.09,3.78.03.08-.02.53-.61,1.45-1.06,1.68-2.96,3.56-4.59,4.39-.68-.87-1.4-1.67-2.15-2.42Z"/>
    <path class="cls-3" d="M47.37,35.22c-.64,2.08-2.54,3.47-4.71,3.47s-4.07-1.4-4.71-3.47c-.05-.17-.22-.29-.4-.29s-.34.12-.4.29c-.17.55-.26,1.13-.26,1.71,0,3.18,2.59,5.77,5.77,5.77s5.77-2.59,5.77-5.77c0-.58-.09-1.15-.26-1.71-.05-.17-.21-.29-.4-.29s-.34.12-.4.29ZM42.66,41.87c-2.72,0-4.93-2.21-4.93-4.93,0-.06,0-.11,0-.17,1.03,1.7,2.87,2.77,4.93,2.77s3.9-1.07,4.93-2.77c0,.06,0,.11,0,.17,0,2.72-2.21,4.93-4.93,4.93Z"/>
  </g>
</svg>